<svg xmlns="http://www.w3.org/2000/svg" xmlns:xlink="http://www.w3.org/1999/xlink" width="500" viewBox="0 0 375 374.999991" height="500" preserveAspectRatio="xMidYMid meet"><defs><clipPath id="2149096937"><path d="M 84.285156 56.675781 L 290.535156 56.675781 L 290.535156 262.925781 L 84.285156 262.925781 Z M 84.285156 56.675781 " clip-rule="nonzero"></path></clipPath><clipPath id="5770c4f81a"><path d="M 289.683594 173.253906 L 289.628906 173.679688 C 289.589844 173.957031 289.503906 174.21875 289.363281 174.460938 C 289.21875 174.703125 289.039062 174.910156 288.816406 175.082031 C 288.59375 175.25 288.34375 175.371094 288.074219 175.445312 C 287.800781 175.515625 287.527344 175.535156 287.25 175.496094 C 286.96875 175.460938 286.710938 175.371094 286.46875 175.230469 C 286.222656 175.089844 286.015625 174.90625 285.847656 174.683594 C 285.675781 174.460938 285.554688 174.214844 285.480469 173.941406 C 285.410156 173.671875 285.390625 173.394531 285.429688 173.117188 L 285.484375 172.695312 C 285.523438 172.417969 285.613281 172.15625 285.753906 171.914062 C 285.894531 171.671875 286.074219 171.464844 286.300781 171.292969 C 286.523438 171.121094 286.769531 171 287.039062 170.929688 C 287.3125 170.855469 287.585938 170.839844 287.867188 170.875 C 288.144531 170.914062 288.40625 171.003906 288.648438 171.144531 C 288.890625 171.285156 289.097656 171.464844 289.269531 171.6875 C 289.4375 171.914062 289.558594 172.160156 289.632812 172.429688 C 289.703125 172.703125 289.722656 172.976562 289.683594 173.253906 Z M 287.050781 186.511719 L 286.9375 186.925781 C 286.863281 187.199219 286.742188 187.445312 286.570312 187.667969 C 286.398438 187.890625 286.191406 188.070312 285.949219 188.210938 C 285.703125 188.351562 285.445312 188.4375 285.164062 188.472656 C 284.886719 188.511719 284.613281 188.492188 284.339844 188.417969 C 284.070312 188.34375 283.824219 188.222656 283.601562 188.050781 C 283.378906 187.878906 283.195312 187.671875 283.058594 187.429688 C 282.917969 187.1875 282.828125 186.925781 282.792969 186.644531 C 282.757812 186.367188 282.773438 186.09375 282.847656 185.820312 L 282.960938 185.40625 C 283.035156 185.132812 283.15625 184.886719 283.328125 184.664062 C 283.5 184.441406 283.707031 184.261719 283.949219 184.121094 C 284.195312 183.980469 284.453125 183.894531 284.734375 183.859375 C 285.011719 183.820312 285.285156 183.839844 285.558594 183.914062 C 285.828125 183.988281 286.074219 184.109375 286.296875 184.28125 C 286.519531 184.453125 286.703125 184.660156 286.84375 184.902344 C 286.980469 185.144531 287.070312 185.40625 287.105469 185.6875 C 287.140625 185.964844 287.125 186.238281 287.050781 186.511719 Z M 282.710938 199.296875 L 282.546875 199.6875 C 282.4375 199.949219 282.285156 200.175781 282.085938 200.375 C 281.886719 200.574219 281.65625 200.726562 281.398438 200.832031 C 281.136719 200.9375 280.867188 200.992188 280.585938 200.992188 C 280.304688 200.992188 280.035156 200.9375 279.777344 200.828125 C 279.515625 200.71875 279.289062 200.566406 279.089844 200.367188 C 278.890625 200.167969 278.738281 199.941406 278.632812 199.679688 C 278.527344 199.421875 278.472656 199.148438 278.472656 198.871094 C 278.472656 198.589844 278.527344 198.316406 278.636719 198.058594 L 278.800781 197.667969 C 278.90625 197.40625 279.0625 197.179688 279.261719 196.980469 C 279.460938 196.78125 279.6875 196.628906 279.949219 196.523438 C 280.207031 196.417969 280.476562 196.363281 280.757812 196.363281 C 281.039062 196.363281 281.308594 196.417969 281.570312 196.527344 C 281.828125 196.636719 282.058594 196.789062 282.253906 196.988281 C 282.453125 197.1875 282.605469 197.417969 282.714844 197.675781 C 282.820312 197.933594 282.875 198.207031 282.871094 198.488281 C 282.871094 198.765625 282.816406 199.039062 282.710938 199.296875 Z M 276.742188 211.398438 L 276.527344 211.765625 C 276.386719 212.007812 276.203125 212.214844 275.980469 212.386719 C 275.757812 212.558594 275.511719 212.679688 275.238281 212.75 C 274.96875 212.824219 274.691406 212.839844 274.414062 212.804688 C 274.136719 212.765625 273.875 212.675781 273.632812 212.535156 C 273.390625 212.394531 273.183594 212.210938 273.011719 211.988281 C 272.839844 211.765625 272.71875 211.519531 272.648438 211.246094 C 272.574219 210.976562 272.558594 210.699219 272.59375 210.421875 C 272.632812 210.144531 272.722656 209.882812 272.863281 209.640625 L 273.078125 209.273438 C 273.21875 209.027344 273.398438 208.820312 273.625 208.652344 C 273.847656 208.480469 274.09375 208.359375 274.363281 208.289062 C 274.636719 208.214844 274.910156 208.199219 275.191406 208.234375 C 275.46875 208.273438 275.730469 208.363281 275.972656 208.503906 C 276.214844 208.644531 276.421875 208.824219 276.59375 209.046875 C 276.761719 209.273438 276.882812 209.519531 276.957031 209.789062 C 277.027344 210.0625 277.046875 210.335938 277.007812 210.617188 C 276.972656 210.894531 276.882812 211.15625 276.742188 211.398438 Z M 269.234375 222.625 L 268.972656 222.964844 C 268.800781 223.1875 268.59375 223.367188 268.351562 223.507812 C 268.109375 223.648438 267.847656 223.734375 267.566406 223.773438 C 267.289062 223.808594 267.015625 223.789062 266.742188 223.714844 C 266.472656 223.644531 266.226562 223.519531 266.003906 223.347656 C 265.78125 223.175781 265.597656 222.96875 265.460938 222.726562 C 265.320312 222.484375 265.230469 222.222656 265.195312 221.945312 C 265.160156 221.664062 265.179688 221.390625 265.25 221.117188 C 265.324219 220.847656 265.449219 220.601562 265.617188 220.378906 L 265.878906 220.039062 C 266.050781 219.816406 266.257812 219.636719 266.503906 219.496094 C 266.746094 219.355469 267.007812 219.269531 267.285156 219.234375 C 267.5625 219.195312 267.839844 219.214844 268.109375 219.289062 C 268.382812 219.363281 268.628906 219.484375 268.851562 219.65625 C 269.074219 219.828125 269.253906 220.035156 269.394531 220.277344 C 269.535156 220.523438 269.621094 220.78125 269.65625 221.0625 C 269.695312 221.339844 269.675781 221.613281 269.601562 221.886719 C 269.527344 222.15625 269.40625 222.402344 269.234375 222.625 Z M 260.328125 232.777344 L 260.023438 233.078125 C 259.824219 233.277344 259.59375 233.429688 259.335938 233.535156 C 259.074219 233.644531 258.804688 233.695312 258.523438 233.695312 C 258.242188 233.695312 257.972656 233.640625 257.714844 233.53125 C 257.457031 233.421875 257.226562 233.269531 257.027344 233.070312 C 256.832031 232.871094 256.679688 232.640625 256.570312 232.382812 C 256.464844 232.121094 256.410156 231.851562 256.410156 231.570312 C 256.414062 231.289062 256.46875 231.019531 256.574219 230.761719 C 256.683594 230.503906 256.835938 230.273438 257.035156 230.074219 L 257.339844 229.773438 C 257.539062 229.578125 257.765625 229.421875 258.027344 229.316406 C 258.285156 229.210938 258.558594 229.15625 258.839844 229.15625 C 259.117188 229.160156 259.390625 229.210938 259.648438 229.320312 C 259.90625 229.429688 260.136719 229.582031 260.335938 229.78125 C 260.53125 229.980469 260.683594 230.210938 260.792969 230.46875 C 260.898438 230.730469 260.953125 231 260.949219 231.28125 C 260.949219 231.5625 260.894531 231.832031 260.789062 232.089844 C 260.679688 232.351562 260.527344 232.578125 260.328125 232.777344 Z M 250.167969 241.675781 L 249.828125 241.9375 C 249.605469 242.105469 249.359375 242.226562 249.085938 242.300781 C 248.816406 242.371094 248.539062 242.390625 248.261719 242.351562 C 247.984375 242.3125 247.722656 242.226562 247.480469 242.082031 C 247.238281 241.941406 247.03125 241.761719 246.859375 241.539062 C 246.691406 241.3125 246.570312 241.066406 246.496094 240.796875 C 246.425781 240.523438 246.40625 240.25 246.445312 239.96875 C 246.480469 239.691406 246.570312 239.429688 246.710938 239.1875 C 246.855469 238.945312 247.035156 238.738281 247.257812 238.570312 L 247.597656 238.308594 C 247.820312 238.140625 248.070312 238.019531 248.339844 237.945312 C 248.613281 237.875 248.886719 237.855469 249.164062 237.894531 C 249.445312 237.929688 249.703125 238.019531 249.949219 238.160156 C 250.191406 238.300781 250.398438 238.484375 250.566406 238.707031 C 250.738281 238.929688 250.859375 239.179688 250.929688 239.449219 C 251.003906 239.722656 251.019531 239.996094 250.984375 240.273438 C 250.945312 240.554688 250.855469 240.8125 250.714844 241.058594 C 250.574219 241.300781 250.390625 241.507812 250.167969 241.675781 Z M 238.933594 249.171875 L 238.5625 249.386719 C 238.320312 249.527344 238.058594 249.613281 237.78125 249.648438 C 237.503906 249.683594 237.226562 249.667969 236.957031 249.59375 C 236.683594 249.519531 236.4375 249.398438 236.214844 249.226562 C 235.992188 249.054688 235.8125 248.847656 235.671875 248.601562 C 235.53125 248.359375 235.445312 248.097656 235.410156 247.820312 C 235.375 247.539062 235.390625 247.265625 235.464844 246.996094 C 235.539062 246.722656 235.660156 246.476562 235.832031 246.253906 C 236.003906 246.03125 236.210938 245.851562 236.457031 245.710938 L 236.824219 245.5 C 237.070312 245.359375 237.332031 245.273438 237.609375 245.234375 C 237.886719 245.199219 238.164062 245.21875 238.433594 245.292969 C 238.703125 245.367188 238.953125 245.488281 239.175781 245.660156 C 239.394531 245.832031 239.578125 246.039062 239.71875 246.28125 C 239.855469 246.527344 239.945312 246.789062 239.980469 247.066406 C 240.015625 247.34375 239.996094 247.621094 239.925781 247.890625 C 239.851562 248.160156 239.726562 248.40625 239.554688 248.628906 C 239.386719 248.851562 239.175781 249.035156 238.933594 249.171875 Z M 226.828125 255.132812 L 226.4375 255.292969 C 226.175781 255.398438 225.90625 255.453125 225.625 255.453125 C 225.34375 255.453125 225.074219 255.398438 224.816406 255.289062 C 224.554688 255.179688 224.328125 255.027344 224.128906 254.828125 C 223.933594 254.628906 223.78125 254.398438 223.671875 254.140625 C 223.566406 253.878906 223.511719 253.609375 223.515625 253.328125 C 223.515625 253.046875 223.570312 252.777344 223.675781 252.519531 C 223.785156 252.257812 223.9375 252.03125 224.136719 251.832031 C 224.335938 251.632812 224.566406 251.480469 224.828125 251.375 L 225.21875 251.214844 C 225.480469 251.109375 225.75 251.054688 226.03125 251.054688 C 226.3125 251.054688 226.582031 251.109375 226.839844 251.21875 C 227.097656 251.328125 227.328125 251.480469 227.527344 251.679688 C 227.722656 251.878906 227.875 252.109375 227.984375 252.367188 C 228.089844 252.628906 228.140625 252.898438 228.140625 253.179688 C 228.140625 253.460938 228.085938 253.730469 227.976562 253.988281 C 227.871094 254.25 227.714844 254.476562 227.515625 254.675781 C 227.316406 254.875 227.089844 255.027344 226.828125 255.132812 Z M 214.039062 259.464844 L 213.621094 259.574219 C 213.351562 259.644531 213.074219 259.664062 212.796875 259.625 C 212.519531 259.585938 212.257812 259.496094 212.015625 259.355469 C 211.773438 259.214844 211.566406 259.035156 211.394531 258.808594 C 211.226562 258.585938 211.105469 258.339844 211.03125 258.066406 C 210.960938 257.796875 210.941406 257.519531 210.980469 257.242188 C 211.019531 256.964844 211.109375 256.703125 211.25 256.460938 C 211.390625 256.21875 211.570312 256.011719 211.796875 255.839844 C 212.019531 255.671875 212.265625 255.550781 212.539062 255.476562 L 212.953125 255.367188 C 213.226562 255.296875 213.5 255.277344 213.777344 255.316406 C 214.058594 255.355469 214.316406 255.445312 214.558594 255.585938 C 214.804688 255.726562 215.007812 255.90625 215.179688 256.132812 C 215.351562 256.355469 215.472656 256.601562 215.542969 256.875 C 215.613281 257.144531 215.632812 257.417969 215.59375 257.699219 C 215.558594 257.976562 215.46875 258.238281 215.328125 258.480469 C 215.1875 258.722656 215.003906 258.929688 214.78125 259.101562 C 214.558594 259.269531 214.308594 259.390625 214.039062 259.464844 Z M 200.78125 262.085938 L 200.359375 262.140625 C 200.082031 262.175781 199.804688 262.15625 199.535156 262.085938 C 199.265625 262.011719 199.015625 261.886719 198.796875 261.714844 C 198.574219 261.542969 198.390625 261.335938 198.253906 261.09375 C 198.113281 260.851562 198.023438 260.589844 197.988281 260.308594 C 197.953125 260.03125 197.972656 259.757812 198.046875 259.484375 C 198.121094 259.214844 198.242188 258.96875 198.414062 258.746094 C 198.585938 258.523438 198.792969 258.34375 199.035156 258.203125 C 199.28125 258.0625 199.542969 257.976562 199.820312 257.9375 L 200.242188 257.886719 C 200.519531 257.847656 200.796875 257.867188 201.066406 257.941406 C 201.335938 258.015625 201.585938 258.136719 201.804688 258.308594 C 202.027344 258.480469 202.210938 258.6875 202.347656 258.933594 C 202.488281 259.175781 202.578125 259.4375 202.613281 259.714844 C 202.648438 259.996094 202.628906 260.269531 202.554688 260.539062 C 202.480469 260.8125 202.359375 261.058594 202.1875 261.28125 C 202.015625 261.503906 201.808594 261.683594 201.566406 261.824219 C 201.320312 261.964844 201.058594 262.050781 200.78125 262.085938 Z M 187.351562 262.953125 L 186.933594 262.953125 C 186.652344 262.953125 186.382812 262.898438 186.121094 262.789062 C 185.863281 262.679688 185.632812 262.527344 185.4375 262.328125 C 185.238281 262.128906 185.085938 261.898438 184.980469 261.640625 C 184.871094 261.378906 184.820312 261.109375 184.820312 260.828125 C 184.820312 260.546875 184.875 260.277344 184.984375 260.019531 C 185.09375 259.761719 185.246094 259.53125 185.445312 259.332031 C 185.644531 259.136719 185.875 258.984375 186.132812 258.875 C 186.394531 258.769531 186.664062 258.714844 186.945312 258.71875 L 187.363281 258.71875 C 187.644531 258.71875 187.914062 258.773438 188.175781 258.882812 C 188.433594 258.988281 188.660156 259.144531 188.859375 259.34375 C 189.058594 259.542969 189.210938 259.773438 189.316406 260.03125 C 189.421875 260.292969 189.476562 260.5625 189.476562 260.84375 C 189.476562 261.125 189.421875 261.394531 189.3125 261.652344 C 189.203125 261.910156 189.050781 262.140625 188.851562 262.339844 C 188.652344 262.535156 188.421875 262.6875 188.164062 262.796875 C 187.902344 262.902344 187.632812 262.957031 187.351562 262.953125 Z M 173.921875 262.066406 L 173.5 262.007812 C 173.21875 261.972656 172.960938 261.882812 172.714844 261.742188 C 172.472656 261.601562 172.265625 261.417969 172.097656 261.195312 C 171.925781 260.972656 171.804688 260.722656 171.734375 260.453125 C 171.660156 260.179688 171.644531 259.90625 171.679688 259.628906 C 171.71875 259.351562 171.808594 259.089844 171.949219 258.847656 C 172.089844 258.601562 172.273438 258.398438 172.496094 258.226562 C 172.71875 258.054688 172.964844 257.933594 173.238281 257.863281 C 173.507812 257.789062 173.785156 257.773438 174.0625 257.8125 L 174.484375 257.867188 C 174.761719 257.90625 175.023438 257.992188 175.265625 258.136719 C 175.507812 258.277344 175.714844 258.457031 175.886719 258.679688 C 176.058594 258.90625 176.179688 259.152344 176.25 259.421875 C 176.320312 259.695312 176.339844 259.96875 176.300781 260.25 C 176.265625 260.527344 176.175781 260.789062 176.035156 261.03125 C 175.894531 261.273438 175.710938 261.480469 175.488281 261.648438 C 175.265625 261.820312 175.015625 261.941406 174.746094 262.015625 C 174.472656 262.085938 174.199219 262.101562 173.921875 262.066406 Z M 160.667969 259.421875 L 160.25 259.308594 C 159.980469 259.234375 159.734375 259.113281 159.511719 258.941406 C 159.289062 258.769531 159.109375 258.5625 158.96875 258.320312 C 158.828125 258.074219 158.742188 257.8125 158.703125 257.535156 C 158.667969 257.257812 158.6875 256.980469 158.761719 256.710938 C 158.835938 256.441406 158.957031 256.191406 159.128906 255.96875 C 159.300781 255.75 159.507812 255.566406 159.75 255.425781 C 159.996094 255.289062 160.257812 255.199219 160.535156 255.164062 C 160.8125 255.128906 161.089844 255.148438 161.359375 255.21875 L 161.773438 255.332031 C 162.046875 255.40625 162.292969 255.527344 162.515625 255.699219 C 162.738281 255.871094 162.917969 256.078125 163.058594 256.324219 C 163.199219 256.566406 163.285156 256.828125 163.320312 257.105469 C 163.359375 257.386719 163.339844 257.660156 163.265625 257.929688 C 163.191406 258.203125 163.070312 258.449219 162.898438 258.671875 C 162.726562 258.894531 162.519531 259.074219 162.273438 259.214844 C 162.03125 259.355469 161.769531 259.441406 161.492188 259.476562 C 161.214844 259.515625 160.9375 259.496094 160.667969 259.421875 Z M 147.886719 255.070312 L 147.492188 254.910156 C 147.234375 254.800781 147.007812 254.644531 146.808594 254.445312 C 146.609375 254.246094 146.457031 254.019531 146.351562 253.757812 C 146.242188 253.5 146.191406 253.230469 146.191406 252.949219 C 146.191406 252.667969 146.246094 252.398438 146.355469 252.136719 C 146.464844 251.878906 146.617188 251.648438 146.816406 251.453125 C 147.015625 251.253906 147.246094 251.101562 147.503906 250.996094 C 147.765625 250.886719 148.035156 250.835938 148.316406 250.835938 C 148.597656 250.835938 148.867188 250.890625 149.125 251 L 149.519531 251.164062 C 149.777344 251.269531 150.003906 251.425781 150.203125 251.625 C 150.402344 251.824219 150.554688 252.050781 150.660156 252.3125 C 150.765625 252.570312 150.820312 252.84375 150.820312 253.125 C 150.820312 253.40625 150.765625 253.675781 150.65625 253.933594 C 150.546875 254.191406 150.394531 254.421875 150.195312 254.621094 C 149.996094 254.816406 149.765625 254.96875 149.507812 255.078125 C 149.246094 255.183594 148.976562 255.234375 148.695312 255.234375 C 148.414062 255.234375 148.144531 255.179688 147.886719 255.070312 Z M 135.789062 249.09375 L 135.417969 248.878906 C 135.175781 248.738281 134.96875 248.554688 134.800781 248.332031 C 134.628906 248.109375 134.507812 247.863281 134.4375 247.589844 C 134.363281 247.320312 134.347656 247.042969 134.386719 246.765625 C 134.421875 246.488281 134.511719 246.226562 134.652344 245.984375 C 134.792969 245.742188 134.976562 245.535156 135.199219 245.363281 C 135.421875 245.195312 135.671875 245.074219 135.941406 245 C 136.214844 244.929688 136.488281 244.910156 136.765625 244.949219 C 137.046875 244.988281 137.304688 245.074219 137.546875 245.21875 L 137.917969 245.433594 C 138.160156 245.574219 138.367188 245.753906 138.535156 245.976562 C 138.707031 246.203125 138.828125 246.449219 138.902344 246.71875 C 138.972656 246.992188 138.988281 247.265625 138.953125 247.546875 C 138.914062 247.824219 138.824219 248.085938 138.683594 248.328125 C 138.542969 248.570312 138.359375 248.777344 138.136719 248.945312 C 137.914062 249.117188 137.667969 249.238281 137.394531 249.308594 C 137.125 249.382812 136.847656 249.398438 136.570312 249.363281 C 136.292969 249.324219 136.03125 249.234375 135.789062 249.09375 Z M 124.566406 241.578125 L 124.226562 241.316406 C 124.003906 241.148438 123.824219 240.9375 123.683594 240.695312 C 123.542969 240.453125 123.457031 240.191406 123.421875 239.910156 C 123.382812 239.632812 123.402344 239.359375 123.476562 239.085938 C 123.550781 238.816406 123.671875 238.570312 123.84375 238.347656 C 124.015625 238.125 124.222656 237.945312 124.46875 237.804688 C 124.710938 237.664062 124.972656 237.578125 125.25 237.542969 C 125.53125 237.503906 125.804688 237.523438 126.074219 237.597656 C 126.347656 237.671875 126.59375 237.792969 126.816406 237.964844 L 127.152344 238.226562 C 127.375 238.398438 127.558594 238.605469 127.695312 238.851562 C 127.835938 239.09375 127.925781 239.355469 127.960938 239.632812 C 127.996094 239.910156 127.976562 240.1875 127.902344 240.457031 C 127.832031 240.730469 127.707031 240.976562 127.535156 241.199219 C 127.363281 241.421875 127.15625 241.601562 126.914062 241.742188 C 126.667969 241.878906 126.40625 241.96875 126.128906 242.003906 C 125.851562 242.039062 125.578125 242.019531 125.304688 241.949219 C 125.035156 241.875 124.789062 241.75 124.566406 241.578125 Z M 114.421875 232.664062 L 114.121094 232.363281 C 113.921875 232.164062 113.769531 231.933594 113.664062 231.671875 C 113.554688 231.414062 113.503906 231.144531 113.503906 230.863281 C 113.503906 230.582031 113.558594 230.3125 113.667969 230.050781 C 113.777344 229.792969 113.929688 229.5625 114.128906 229.367188 C 114.328125 229.167969 114.558594 229.015625 114.816406 228.910156 C 115.078125 228.800781 115.347656 228.75 115.628906 228.75 C 115.910156 228.75 116.179688 228.804688 116.4375 228.914062 C 116.699219 229.023438 116.925781 229.175781 117.125 229.375 L 117.425781 229.679688 C 117.625 229.878906 117.777344 230.109375 117.882812 230.367188 C 117.988281 230.628906 118.042969 230.898438 118.042969 231.179688 C 118.039062 231.460938 117.984375 231.730469 117.878906 231.988281 C 117.769531 232.246094 117.617188 232.476562 117.417969 232.675781 C 117.21875 232.871094 116.988281 233.023438 116.726562 233.132812 C 116.46875 233.238281 116.199219 233.289062 115.917969 233.289062 C 115.636719 233.289062 115.367188 233.234375 115.105469 233.125 C 114.847656 233.015625 114.617188 232.863281 114.421875 232.664062 Z M 105.527344 222.5 L 105.269531 222.160156 C 105.097656 221.9375 104.976562 221.6875 104.90625 221.417969 C 104.835938 221.144531 104.816406 220.871094 104.855469 220.59375 C 104.894531 220.3125 104.980469 220.054688 105.125 219.8125 C 105.265625 219.566406 105.445312 219.363281 105.671875 219.191406 C 105.894531 219.019531 106.140625 218.898438 106.414062 218.828125 C 106.683594 218.757812 106.960938 218.738281 107.238281 218.777344 C 107.515625 218.816406 107.777344 218.902344 108.019531 219.046875 C 108.261719 219.1875 108.46875 219.367188 108.640625 219.59375 L 108.898438 219.933594 C 109.066406 220.15625 109.1875 220.402344 109.261719 220.675781 C 109.332031 220.945312 109.351562 221.222656 109.3125 221.5 C 109.273438 221.777344 109.183594 222.039062 109.042969 222.28125 C 108.902344 222.523438 108.71875 222.730469 108.496094 222.902344 C 108.273438 223.070312 108.027344 223.191406 107.753906 223.265625 C 107.484375 223.335938 107.207031 223.351562 106.929688 223.316406 C 106.652344 223.277344 106.390625 223.1875 106.148438 223.046875 C 105.90625 222.90625 105.699219 222.722656 105.527344 222.5 Z M 98.042969 211.261719 L 98.015625 211.214844 L 97.828125 210.890625 C 97.6875 210.644531 97.601562 210.382812 97.566406 210.105469 C 97.53125 209.828125 97.546875 209.550781 97.621094 209.28125 C 97.695312 209.011719 97.820312 208.761719 97.992188 208.542969 C 98.164062 208.320312 98.371094 208.136719 98.613281 208 C 98.859375 207.859375 99.117188 207.773438 99.398438 207.734375 C 99.675781 207.699219 99.949219 207.71875 100.222656 207.792969 C 100.492188 207.867188 100.738281 207.988281 100.960938 208.160156 C 101.183594 208.332031 101.363281 208.542969 101.503906 208.785156 L 101.6875 209.101562 L 101.714844 209.152344 C 101.855469 209.394531 101.941406 209.65625 101.976562 209.933594 C 102.015625 210.210938 101.996094 210.488281 101.921875 210.757812 C 101.851562 211.03125 101.726562 211.277344 101.554688 211.5 C 101.386719 211.722656 101.175781 211.902344 100.933594 212.042969 C 100.691406 212.183594 100.429688 212.269531 100.152344 212.308594 C 99.871094 212.34375 99.597656 212.324219 99.328125 212.253906 C 99.054688 212.179688 98.808594 212.058594 98.585938 211.886719 C 98.363281 211.714844 98.183594 211.507812 98.042969 211.261719 Z M 92.089844 199.152344 L 91.929688 198.757812 C 91.824219 198.5 91.769531 198.226562 91.769531 197.949219 C 91.773438 197.667969 91.828125 197.398438 91.933594 197.136719 C 92.042969 196.878906 92.199219 196.648438 92.398438 196.453125 C 92.597656 196.253906 92.824219 196.101562 93.085938 195.996094 C 93.34375 195.890625 93.617188 195.835938 93.898438 195.835938 C 94.175781 195.839844 94.449219 195.894531 94.707031 196 C 94.964844 196.109375 95.195312 196.261719 95.390625 196.460938 C 95.589844 196.660156 95.742188 196.890625 95.847656 197.152344 L 96.007812 197.542969 C 96.117188 197.804688 96.167969 198.074219 96.167969 198.355469 C 96.167969 198.636719 96.113281 198.90625 96.003906 199.164062 C 95.894531 199.421875 95.742188 199.652344 95.542969 199.851562 C 95.34375 200.046875 95.113281 200.199219 94.855469 200.304688 C 94.59375 200.414062 94.324219 200.464844 94.042969 200.464844 C 93.761719 200.464844 93.492188 200.410156 93.234375 200.300781 C 92.972656 200.191406 92.746094 200.039062 92.546875 199.839844 C 92.347656 199.640625 92.195312 199.410156 92.089844 199.152344 Z M 87.769531 186.355469 L 87.660156 185.941406 C 87.585938 185.667969 87.570312 185.394531 87.609375 185.113281 C 87.644531 184.835938 87.734375 184.574219 87.875 184.332031 C 88.019531 184.089844 88.199219 183.882812 88.421875 183.714844 C 88.648438 183.542969 88.894531 183.421875 89.167969 183.351562 C 89.4375 183.28125 89.710938 183.261719 89.992188 183.300781 C 90.269531 183.335938 90.53125 183.425781 90.773438 183.570312 C 91.015625 183.710938 91.222656 183.890625 91.390625 184.117188 C 91.5625 184.339844 91.683594 184.585938 91.753906 184.859375 L 91.863281 185.273438 C 91.9375 185.546875 91.953125 185.820312 91.914062 186.097656 C 91.878906 186.378906 91.789062 186.636719 91.648438 186.878906 C 91.503906 187.125 91.324219 187.328125 91.097656 187.5 C 90.875 187.671875 90.628906 187.789062 90.355469 187.863281 C 90.085938 187.933594 89.808594 187.953125 89.53125 187.914062 C 89.253906 187.875 88.992188 187.785156 88.75 187.644531 C 88.507812 187.503906 88.300781 187.320312 88.132812 187.097656 C 87.960938 186.875 87.839844 186.628906 87.769531 186.355469 Z M 85.15625 173.097656 L 85.101562 172.675781 C 85.066406 172.398438 85.085938 172.121094 85.160156 171.851562 C 85.230469 171.582031 85.355469 171.335938 85.527344 171.113281 C 85.699219 170.890625 85.90625 170.710938 86.148438 170.570312 C 86.394531 170.429688 86.65625 170.34375 86.933594 170.308594 C 87.210938 170.269531 87.488281 170.289062 87.757812 170.363281 C 88.027344 170.4375 88.277344 170.5625 88.496094 170.734375 C 88.71875 170.90625 88.902344 171.113281 89.039062 171.355469 C 89.179688 171.601562 89.265625 171.859375 89.304688 172.140625 L 89.355469 172.5625 C 89.390625 172.839844 89.375 173.113281 89.300781 173.386719 C 89.226562 173.65625 89.101562 173.902344 88.929688 174.125 C 88.757812 174.347656 88.550781 174.527344 88.308594 174.667969 C 88.0625 174.808594 87.804688 174.894531 87.523438 174.929688 C 87.246094 174.964844 86.972656 174.949219 86.699219 174.875 C 86.429688 174.800781 86.183594 174.675781 85.960938 174.503906 C 85.738281 174.332031 85.558594 174.125 85.417969 173.882812 C 85.277344 173.636719 85.191406 173.375 85.15625 173.097656 Z M 84.296875 159.667969 L 84.296875 159.25 C 84.300781 158.96875 84.355469 158.699219 84.460938 158.4375 C 84.570312 158.179688 84.722656 157.953125 84.925781 157.753906 C 85.125 157.554688 85.351562 157.402344 85.613281 157.296875 C 85.871094 157.191406 86.144531 157.136719 86.421875 157.140625 C 86.703125 157.140625 86.972656 157.195312 87.234375 157.304688 C 87.492188 157.410156 87.722656 157.566406 87.917969 157.765625 C 88.117188 157.964844 88.269531 158.191406 88.375 158.453125 C 88.484375 158.710938 88.535156 158.984375 88.535156 159.265625 L 88.53125 159.683594 C 88.53125 159.964844 88.476562 160.234375 88.367188 160.492188 C 88.261719 160.753906 88.105469 160.980469 87.90625 161.179688 C 87.707031 161.378906 87.476562 161.53125 87.21875 161.636719 C 86.957031 161.742188 86.6875 161.796875 86.40625 161.792969 C 86.125 161.792969 85.855469 161.738281 85.597656 161.628906 C 85.339844 161.523438 85.109375 161.367188 84.910156 161.167969 C 84.714844 160.96875 84.5625 160.738281 84.457031 160.480469 C 84.347656 160.21875 84.296875 159.949219 84.296875 159.667969 Z M 85.195312 146.238281 L 85.253906 145.816406 C 85.289062 145.535156 85.378906 145.277344 85.519531 145.035156 C 85.660156 144.789062 85.84375 144.585938 86.066406 144.414062 C 86.289062 144.242188 86.539062 144.121094 86.808594 144.050781 C 87.082031 143.980469 87.355469 143.960938 87.632812 144 C 87.914062 144.035156 88.171875 144.125 88.417969 144.265625 C 88.660156 144.410156 88.867188 144.589844 89.035156 144.8125 C 89.207031 145.039062 89.328125 145.285156 89.398438 145.558594 C 89.46875 145.828125 89.488281 146.101562 89.449219 146.382812 L 89.394531 146.804688 C 89.355469 147.082031 89.265625 147.34375 89.125 147.585938 C 88.984375 147.828125 88.800781 148.035156 88.578125 148.207031 C 88.355469 148.375 88.105469 148.496094 87.835938 148.570312 C 87.5625 148.640625 87.289062 148.65625 87.011719 148.621094 C 86.734375 148.582031 86.472656 148.492188 86.230469 148.351562 C 85.988281 148.210938 85.78125 148.027344 85.609375 147.804688 C 85.4375 147.582031 85.316406 147.332031 85.246094 147.0625 C 85.175781 146.789062 85.15625 146.515625 85.195312 146.238281 Z M 87.847656 132.984375 L 87.960938 132.570312 C 88.035156 132.296875 88.160156 132.050781 88.332031 131.828125 C 88.503906 131.605469 88.710938 131.425781 88.953125 131.285156 C 89.199219 131.148438 89.457031 131.058594 89.738281 131.023438 C 90.015625 130.988281 90.289062 131.007812 90.5625 131.082031 C 90.832031 131.15625 91.078125 131.277344 91.300781 131.449219 C 91.523438 131.621094 91.703125 131.828125 91.84375 132.070312 C 91.984375 132.316406 92.070312 132.578125 92.105469 132.855469 C 92.144531 133.132812 92.125 133.410156 92.050781 133.679688 L 91.9375 134.097656 C 91.863281 134.367188 91.742188 134.613281 91.570312 134.835938 C 91.398438 135.058594 91.1875 135.238281 90.945312 135.378906 C 90.703125 135.519531 90.441406 135.605469 90.164062 135.640625 C 89.882812 135.675781 89.609375 135.65625 89.335938 135.585938 C 89.066406 135.511719 88.820312 135.386719 88.597656 135.214844 C 88.375 135.042969 88.195312 134.835938 88.054688 134.59375 C 87.914062 134.347656 87.828125 134.089844 87.792969 133.808594 C 87.757812 133.53125 87.777344 133.257812 87.847656 132.984375 Z M 92.207031 120.207031 L 92.371094 119.816406 C 92.480469 119.558594 92.632812 119.328125 92.832031 119.128906 C 93.03125 118.933594 93.261719 118.78125 93.523438 118.671875 C 93.78125 118.566406 94.050781 118.515625 94.332031 118.515625 C 94.613281 118.515625 94.882812 118.570312 95.144531 118.679688 C 95.402344 118.789062 95.628906 118.941406 95.828125 119.140625 C 96.027344 119.339844 96.179688 119.570312 96.285156 119.828125 C 96.390625 120.089844 96.445312 120.359375 96.445312 120.640625 C 96.441406 120.921875 96.386719 121.191406 96.28125 121.449219 L 96.117188 121.84375 C 96.007812 122.101562 95.851562 122.328125 95.652344 122.527344 C 95.453125 122.726562 95.226562 122.878906 94.964844 122.984375 C 94.707031 123.089844 94.433594 123.144531 94.152344 123.144531 C 93.875 123.140625 93.601562 123.085938 93.34375 122.980469 C 93.085938 122.871094 92.855469 122.714844 92.660156 122.515625 C 92.460938 122.316406 92.308594 122.089844 92.203125 121.828125 C 92.09375 121.570312 92.042969 121.296875 92.042969 121.015625 C 92.042969 120.734375 92.097656 120.464844 92.207031 120.207031 Z M 98.195312 108.113281 L 98.410156 107.746094 C 98.550781 107.503906 98.734375 107.296875 98.957031 107.125 C 99.179688 106.957031 99.425781 106.835938 99.699219 106.761719 C 99.972656 106.691406 100.246094 106.675781 100.523438 106.710938 C 100.800781 106.75 101.0625 106.839844 101.304688 106.980469 C 101.546875 107.121094 101.753906 107.304688 101.925781 107.527344 C 102.09375 107.75 102.214844 108 102.289062 108.269531 C 102.359375 108.542969 102.375 108.816406 102.339844 109.09375 C 102.300781 109.375 102.210938 109.632812 102.070312 109.878906 L 101.855469 110.246094 C 101.714844 110.488281 101.53125 110.695312 101.308594 110.863281 C 101.085938 111.035156 100.835938 111.15625 100.566406 111.226562 C 100.292969 111.300781 100.019531 111.316406 99.742188 111.277344 C 99.460938 111.242188 99.203125 111.152344 98.960938 111.011719 C 98.714844 110.871094 98.511719 110.6875 98.339844 110.464844 C 98.171875 110.238281 98.050781 109.992188 97.976562 109.722656 C 97.90625 109.449219 97.886719 109.175781 97.925781 108.894531 C 97.964844 108.617188 98.054688 108.355469 98.195312 108.113281 Z M 105.71875 96.894531 L 105.980469 96.558594 C 106.152344 96.335938 106.359375 96.15625 106.601562 96.015625 C 106.847656 95.875 107.105469 95.789062 107.386719 95.753906 C 107.664062 95.71875 107.9375 95.734375 108.210938 95.808594 C 108.480469 95.882812 108.726562 96.007812 108.949219 96.179688 C 109.171875 96.351562 109.351562 96.558594 109.492188 96.800781 C 109.632812 97.046875 109.71875 97.304688 109.753906 97.585938 C 109.789062 97.863281 109.773438 98.136719 109.699219 98.410156 C 109.625 98.679688 109.5 98.925781 109.328125 99.148438 L 109.066406 99.488281 C 108.894531 99.710938 108.6875 99.890625 108.445312 100.03125 C 108.199219 100.167969 107.941406 100.257812 107.660156 100.292969 C 107.382812 100.328125 107.109375 100.308594 106.835938 100.234375 C 106.566406 100.160156 106.320312 100.039062 106.097656 99.867188 C 105.875 99.695312 105.695312 99.488281 105.554688 99.242188 C 105.414062 99 105.328125 98.738281 105.292969 98.460938 C 105.257812 98.183594 105.273438 97.90625 105.347656 97.636719 C 105.421875 97.363281 105.546875 97.117188 105.71875 96.894531 Z M 114.640625 86.757812 L 114.941406 86.457031 C 115.140625 86.261719 115.371094 86.109375 115.632812 86 C 115.890625 85.894531 116.164062 85.84375 116.441406 85.84375 C 116.722656 85.84375 116.992188 85.898438 117.253906 86.007812 C 117.511719 86.117188 117.742188 86.269531 117.9375 86.46875 C 118.136719 86.667969 118.289062 86.898438 118.394531 87.160156 C 118.5 87.417969 118.554688 87.6875 118.554688 87.96875 C 118.550781 88.25 118.496094 88.519531 118.386719 88.78125 C 118.28125 89.039062 118.125 89.265625 117.925781 89.464844 L 117.625 89.765625 C 117.425781 89.964844 117.195312 90.117188 116.933594 90.222656 C 116.675781 90.328125 116.402344 90.382812 116.125 90.378906 C 115.84375 90.378906 115.574219 90.324219 115.3125 90.214844 C 115.054688 90.105469 114.824219 89.953125 114.628906 89.753906 C 114.429688 89.554688 114.277344 89.324219 114.171875 89.066406 C 114.066406 88.804688 114.011719 88.535156 114.015625 88.253906 C 114.015625 87.972656 114.070312 87.703125 114.179688 87.445312 C 114.285156 87.183594 114.441406 86.957031 114.640625 86.757812 Z M 124.8125 77.875 L 125.152344 77.613281 C 125.375 77.445312 125.621094 77.324219 125.894531 77.253906 C 126.164062 77.179688 126.441406 77.164062 126.71875 77.203125 C 126.996094 77.238281 127.257812 77.328125 127.5 77.46875 C 127.742188 77.613281 127.949219 77.792969 128.121094 78.019531 C 128.289062 78.242188 128.410156 78.488281 128.480469 78.761719 C 128.554688 79.03125 128.570312 79.308594 128.53125 79.585938 C 128.496094 79.863281 128.40625 80.125 128.261719 80.367188 C 128.121094 80.609375 127.941406 80.816406 127.714844 80.984375 L 127.375 81.246094 C 127.152344 81.414062 126.90625 81.535156 126.632812 81.605469 C 126.363281 81.679688 126.085938 81.695312 125.808594 81.65625 C 125.53125 81.621094 125.269531 81.53125 125.027344 81.390625 C 124.785156 81.246094 124.578125 81.066406 124.40625 80.839844 C 124.238281 80.617188 124.117188 80.371094 124.046875 80.097656 C 123.972656 79.828125 123.957031 79.550781 123.996094 79.273438 C 124.03125 78.996094 124.121094 78.734375 124.261719 78.492188 C 124.40625 78.25 124.585938 78.042969 124.8125 77.875 Z M 136.054688 70.394531 L 136.425781 70.183594 C 136.671875 70.042969 136.933594 69.957031 137.210938 69.917969 C 137.488281 69.882812 137.765625 69.902344 138.035156 69.976562 C 138.304688 70.050781 138.550781 70.171875 138.773438 70.347656 C 138.996094 70.519531 139.175781 70.726562 139.316406 70.96875 C 139.457031 71.214844 139.542969 71.472656 139.578125 71.753906 C 139.613281 72.03125 139.59375 72.304688 139.519531 72.578125 C 139.449219 72.847656 139.324219 73.09375 139.152344 73.316406 C 138.980469 73.539062 138.773438 73.71875 138.527344 73.859375 L 138.160156 74.070312 C 137.914062 74.210938 137.652344 74.296875 137.375 74.332031 C 137.097656 74.367188 136.820312 74.347656 136.550781 74.277344 C 136.28125 74.203125 136.035156 74.078125 135.8125 73.90625 C 135.589844 73.734375 135.410156 73.527344 135.269531 73.285156 C 135.128906 73.039062 135.042969 72.777344 135.007812 72.5 C 134.972656 72.222656 134.992188 71.945312 135.0625 71.675781 C 135.136719 71.40625 135.261719 71.15625 135.433594 70.9375 C 135.605469 70.714844 135.8125 70.53125 136.054688 70.394531 Z M 148.167969 64.453125 L 148.5625 64.292969 C 148.820312 64.1875 149.09375 64.132812 149.371094 64.132812 C 149.652344 64.136719 149.921875 64.191406 150.183594 64.300781 C 150.441406 64.40625 150.667969 64.5625 150.867188 64.761719 C 151.066406 64.960938 151.21875 65.191406 151.324219 65.449219 C 151.429688 65.710938 151.484375 65.980469 151.480469 66.261719 C 151.480469 66.542969 151.425781 66.8125 151.316406 67.070312 C 151.207031 67.332031 151.054688 67.558594 150.855469 67.757812 C 150.65625 67.953125 150.425781 68.105469 150.167969 68.210938 L 149.773438 68.375 C 149.515625 68.480469 149.242188 68.53125 148.960938 68.53125 C 148.683594 68.53125 148.410156 68.476562 148.152344 68.367188 C 147.894531 68.257812 147.664062 68.105469 147.46875 67.902344 C 147.269531 67.703125 147.117188 67.476562 147.011719 67.214844 C 146.90625 66.957031 146.851562 66.683594 146.855469 66.402344 C 146.855469 66.125 146.910156 65.851562 147.019531 65.59375 C 147.125 65.335938 147.28125 65.105469 147.480469 64.910156 C 147.679688 64.710938 147.910156 64.558594 148.167969 64.453125 Z M 160.96875 60.140625 L 161.382812 60.03125 C 161.65625 59.960938 161.929688 59.941406 162.210938 59.980469 C 162.488281 60.019531 162.75 60.109375 162.992188 60.25 C 163.234375 60.390625 163.441406 60.574219 163.609375 60.796875 C 163.78125 61.019531 163.902344 61.269531 163.972656 61.539062 C 164.042969 61.8125 164.058594 62.085938 164.023438 62.363281 C 163.984375 62.644531 163.894531 62.902344 163.753906 63.144531 C 163.613281 63.386719 163.429688 63.59375 163.207031 63.765625 C 162.980469 63.933594 162.734375 64.054688 162.464844 64.125 L 162.046875 64.238281 C 161.777344 64.308594 161.5 64.324219 161.222656 64.285156 C 160.945312 64.25 160.683594 64.160156 160.441406 64.019531 C 160.199219 63.875 159.992188 63.695312 159.820312 63.46875 C 159.652344 63.246094 159.53125 63 159.460938 62.726562 C 159.386719 62.457031 159.371094 62.179688 159.410156 61.902344 C 159.445312 61.625 159.535156 61.363281 159.679688 61.121094 C 159.820312 60.878906 160.003906 60.671875 160.226562 60.503906 C 160.449219 60.332031 160.695312 60.210938 160.96875 60.140625 Z M 174.226562 57.535156 L 174.648438 57.484375 C 174.929688 57.445312 175.203125 57.464844 175.472656 57.539062 C 175.746094 57.613281 175.992188 57.738281 176.214844 57.910156 C 176.433594 58.082031 176.617188 58.289062 176.753906 58.53125 C 176.894531 58.777344 176.980469 59.039062 177.015625 59.316406 C 177.050781 59.59375 177.035156 59.871094 176.960938 60.140625 C 176.886719 60.414062 176.761719 60.660156 176.589844 60.878906 C 176.417969 61.101562 176.210938 61.285156 175.964844 61.421875 C 175.722656 61.5625 175.460938 61.648438 175.183594 61.683594 L 174.761719 61.738281 C 174.480469 61.773438 174.207031 61.753906 173.9375 61.679688 C 173.664062 61.605469 173.417969 61.484375 173.195312 61.3125 C 172.976562 61.140625 172.792969 60.933594 172.65625 60.6875 C 172.515625 60.445312 172.429688 60.183594 172.394531 59.902344 C 172.359375 59.625 172.375 59.351562 172.449219 59.078125 C 172.523438 58.808594 172.648438 58.5625 172.820312 58.339844 C 172.992188 58.117188 173.199219 57.9375 173.445312 57.796875 C 173.6875 57.660156 173.949219 57.570312 174.226562 57.535156 Z M 187.65625 56.6875 L 188.074219 56.691406 C 188.355469 56.691406 188.625 56.746094 188.886719 56.855469 C 189.144531 56.960938 189.375 57.117188 189.570312 57.316406 C 189.769531 57.515625 189.921875 57.746094 190.027344 58.003906 C 190.132812 58.265625 190.1875 58.535156 190.183594 58.816406 C 190.183594 59.097656 190.128906 59.367188 190.019531 59.625 C 189.910156 59.886719 189.757812 60.113281 189.558594 60.3125 C 189.359375 60.507812 189.128906 60.660156 188.871094 60.769531 C 188.609375 60.875 188.339844 60.925781 188.058594 60.925781 L 187.636719 60.921875 C 187.355469 60.921875 187.085938 60.867188 186.828125 60.757812 C 186.570312 60.652344 186.339844 60.496094 186.144531 60.296875 C 185.945312 60.097656 185.792969 59.867188 185.6875 59.609375 C 185.582031 59.347656 185.527344 59.078125 185.527344 58.796875 C 185.53125 58.515625 185.585938 58.246094 185.695312 57.988281 C 185.800781 57.726562 185.957031 57.5 186.15625 57.300781 C 186.355469 57.105469 186.585938 56.953125 186.84375 56.84375 C 187.105469 56.738281 187.375 56.6875 187.65625 56.6875 Z M 201.085938 57.597656 L 201.511719 57.652344 C 201.789062 57.691406 202.050781 57.78125 202.292969 57.921875 C 202.535156 58.0625 202.742188 58.246094 202.910156 58.46875 C 203.082031 58.691406 203.203125 58.941406 203.273438 59.210938 C 203.34375 59.484375 203.363281 59.757812 203.324219 60.035156 C 203.285156 60.316406 203.195312 60.574219 203.054688 60.816406 C 202.914062 61.0625 202.730469 61.265625 202.507812 61.4375 C 202.285156 61.609375 202.039062 61.726562 201.765625 61.800781 C 201.496094 61.871094 201.21875 61.886719 200.941406 61.851562 L 200.519531 61.792969 C 200.238281 61.753906 199.980469 61.664062 199.738281 61.523438 C 199.492188 61.382812 199.289062 61.199219 199.117188 60.976562 C 198.949219 60.753906 198.828125 60.507812 198.753906 60.234375 C 198.683594 59.964844 198.667969 59.6875 198.703125 59.410156 C 198.742188 59.132812 198.832031 58.871094 198.972656 58.628906 C 199.113281 58.386719 199.296875 58.179688 199.519531 58.007812 C 199.742188 57.839844 199.992188 57.71875 200.261719 57.648438 C 200.535156 57.574219 200.808594 57.558594 201.085938 57.597656 Z M 214.339844 60.261719 L 214.753906 60.375 C 215.027344 60.445312 215.273438 60.570312 215.496094 60.742188 C 215.714844 60.914062 215.898438 61.121094 216.035156 61.367188 C 216.175781 61.609375 216.265625 61.871094 216.300781 62.148438 C 216.335938 62.429688 216.316406 62.703125 216.242188 62.972656 C 216.167969 63.246094 216.042969 63.492188 215.871094 63.714844 C 215.699219 63.933594 215.492188 64.117188 215.25 64.253906 C 215.003906 64.394531 214.746094 64.480469 214.464844 64.519531 C 214.1875 64.554688 213.914062 64.535156 213.640625 64.460938 L 213.226562 64.347656 C 212.953125 64.273438 212.707031 64.148438 212.484375 63.976562 C 212.265625 63.804688 212.082031 63.597656 211.945312 63.355469 C 211.804688 63.109375 211.71875 62.847656 211.679688 62.570312 C 211.644531 62.292969 211.664062 62.015625 211.738281 61.746094 C 211.8125 61.476562 211.9375 61.230469 212.109375 61.007812 C 212.28125 60.785156 212.488281 60.605469 212.730469 60.464844 C 212.976562 60.324219 213.234375 60.238281 213.515625 60.203125 C 213.792969 60.167969 214.066406 60.1875 214.339844 60.261719 Z M 227.113281 64.628906 L 227.503906 64.792969 C 227.761719 64.898438 227.992188 65.054688 228.1875 65.253906 C 228.386719 65.453125 228.539062 65.683594 228.644531 65.941406 C 228.75 66.203125 228.804688 66.472656 228.804688 66.753906 C 228.800781 67.035156 228.746094 67.304688 228.636719 67.5625 C 228.53125 67.824219 228.375 68.050781 228.175781 68.25 C 227.976562 68.445312 227.746094 68.597656 227.488281 68.707031 C 227.226562 68.8125 226.957031 68.863281 226.675781 68.863281 C 226.394531 68.863281 226.125 68.808594 225.867188 68.699219 L 225.476562 68.535156 C 225.214844 68.425781 224.988281 68.269531 224.789062 68.070312 C 224.59375 67.871094 224.441406 67.644531 224.332031 67.382812 C 224.226562 67.121094 224.175781 66.851562 224.175781 66.570312 C 224.175781 66.289062 224.230469 66.019531 224.339844 65.761719 C 224.449219 65.503906 224.601562 65.273438 224.800781 65.078125 C 225.003906 64.878906 225.230469 64.726562 225.492188 64.621094 C 225.75 64.515625 226.023438 64.460938 226.304688 64.460938 C 226.582031 64.464844 226.855469 64.519531 227.113281 64.628906 Z M 239.199219 70.621094 L 239.234375 70.640625 L 239.570312 70.839844 C 239.8125 70.980469 240.019531 71.164062 240.191406 71.386719 C 240.359375 71.609375 240.480469 71.859375 240.550781 72.128906 C 240.625 72.402344 240.640625 72.675781 240.601562 72.953125 C 240.5625 73.230469 240.472656 73.492188 240.332031 73.734375 C 240.191406 73.976562 240.007812 74.183594 239.785156 74.355469 C 239.5625 74.523438 239.3125 74.644531 239.042969 74.714844 C 238.769531 74.789062 238.496094 74.804688 238.21875 74.765625 C 237.9375 74.730469 237.679688 74.640625 237.4375 74.496094 L 237.105469 74.304688 L 237.070312 74.285156 C 236.828125 74.144531 236.621094 73.960938 236.453125 73.738281 C 236.28125 73.515625 236.160156 73.265625 236.085938 72.996094 C 236.015625 72.726562 236 72.449219 236.035156 72.171875 C 236.074219 71.894531 236.160156 71.632812 236.304688 71.390625 C 236.445312 71.148438 236.625 70.941406 236.847656 70.769531 C 237.074219 70.597656 237.320312 70.476562 237.589844 70.40625 C 237.863281 70.332031 238.136719 70.316406 238.417969 70.355469 C 238.695312 70.390625 238.957031 70.480469 239.199219 70.621094 Z M 250.414062 78.152344 L 250.753906 78.414062 C 250.976562 78.589844 251.15625 78.796875 251.292969 79.039062 C 251.433594 79.285156 251.519531 79.542969 251.558594 79.824219 C 251.59375 80.101562 251.574219 80.375 251.5 80.648438 C 251.425781 80.917969 251.300781 81.164062 251.128906 81.386719 C 250.957031 81.609375 250.75 81.789062 250.507812 81.929688 C 250.261719 82.070312 250 82.15625 249.722656 82.191406 C 249.445312 82.226562 249.167969 82.207031 248.898438 82.132812 C 248.628906 82.058594 248.378906 81.9375 248.160156 81.765625 L 247.820312 81.503906 C 247.597656 81.332031 247.417969 81.125 247.277344 80.878906 C 247.140625 80.636719 247.050781 80.375 247.015625 80.09375 C 246.980469 79.816406 247 79.542969 247.074219 79.269531 C 247.148438 79 247.269531 78.753906 247.441406 78.53125 C 247.613281 78.308594 247.824219 78.128906 248.066406 77.988281 C 248.3125 77.851562 248.570312 77.761719 248.851562 77.726562 C 249.128906 77.691406 249.402344 77.710938 249.675781 77.785156 C 249.945312 77.859375 250.191406 77.980469 250.414062 78.152344 Z M 260.546875 87.085938 L 260.847656 87.386719 C 261.042969 87.585938 261.195312 87.816406 261.300781 88.078125 C 261.410156 88.335938 261.460938 88.605469 261.460938 88.886719 C 261.457031 89.167969 261.402344 89.4375 261.292969 89.699219 C 261.1875 89.957031 261.03125 90.183594 260.832031 90.382812 C 260.632812 90.582031 260.402344 90.730469 260.144531 90.839844 C 259.882812 90.945312 259.613281 90.996094 259.332031 90.996094 C 259.050781 90.996094 258.78125 90.941406 258.523438 90.832031 C 258.261719 90.722656 258.035156 90.570312 257.835938 90.367188 L 257.535156 90.066406 C 257.339844 89.867188 257.1875 89.636719 257.082031 89.375 C 256.972656 89.117188 256.921875 88.847656 256.921875 88.566406 C 256.925781 88.285156 256.980469 88.015625 257.085938 87.753906 C 257.195312 87.496094 257.351562 87.269531 257.550781 87.070312 C 257.75 86.871094 257.980469 86.71875 258.238281 86.613281 C 258.5 86.507812 258.769531 86.457031 259.050781 86.457031 C 259.332031 86.457031 259.601562 86.511719 259.859375 86.621094 C 260.121094 86.730469 260.347656 86.882812 260.546875 87.085938 Z M 269.421875 97.261719 L 269.683594 97.601562 C 269.851562 97.824219 269.972656 98.074219 270.042969 98.34375 C 270.113281 98.617188 270.132812 98.890625 270.09375 99.167969 C 270.054688 99.449219 269.964844 99.707031 269.824219 99.949219 C 269.683594 100.195312 269.5 100.398438 269.277344 100.570312 C 269.054688 100.738281 268.804688 100.859375 268.535156 100.933594 C 268.261719 101.003906 267.988281 101.019531 267.707031 100.980469 C 267.429688 100.945312 267.167969 100.855469 266.925781 100.710938 C 266.683594 100.570312 266.480469 100.386719 266.308594 100.164062 L 266.050781 99.824219 C 265.878906 99.601562 265.757812 99.351562 265.6875 99.082031 C 265.617188 98.808594 265.601562 98.535156 265.636719 98.257812 C 265.675781 97.976562 265.765625 97.71875 265.90625 97.476562 C 266.050781 97.234375 266.230469 97.027344 266.457031 96.855469 C 266.679688 96.6875 266.925781 96.566406 267.199219 96.496094 C 267.46875 96.421875 267.746094 96.40625 268.023438 96.445312 C 268.300781 96.480469 268.5625 96.570312 268.804688 96.714844 C 269.046875 96.855469 269.253906 97.039062 269.421875 97.261719 Z M 276.894531 108.511719 L 277.105469 108.882812 C 277.246094 109.125 277.332031 109.386719 277.367188 109.667969 C 277.402344 109.945312 277.382812 110.21875 277.308594 110.492188 C 277.234375 110.761719 277.113281 111.007812 276.941406 111.230469 C 276.769531 111.453125 276.5625 111.632812 276.316406 111.773438 C 276.074219 111.910156 275.8125 112 275.53125 112.035156 C 275.253906 112.070312 274.980469 112.050781 274.707031 111.976562 C 274.4375 111.902344 274.191406 111.777344 273.96875 111.605469 C 273.746094 111.433594 273.566406 111.226562 273.425781 110.984375 L 273.214844 110.613281 C 273.078125 110.367188 272.988281 110.105469 272.953125 109.828125 C 272.917969 109.550781 272.9375 109.273438 273.011719 109.003906 C 273.085938 108.734375 273.210938 108.488281 273.382812 108.265625 C 273.554688 108.042969 273.761719 107.863281 274.003906 107.722656 C 274.25 107.582031 274.511719 107.496094 274.789062 107.460938 C 275.066406 107.425781 275.34375 107.445312 275.613281 107.519531 C 275.882812 107.59375 276.132812 107.714844 276.351562 107.886719 C 276.574219 108.058594 276.753906 108.269531 276.894531 108.511719 Z M 282.828125 120.628906 L 282.988281 121.019531 C 283.09375 121.28125 283.144531 121.550781 283.144531 121.832031 C 283.144531 122.113281 283.085938 122.382812 282.980469 122.640625 C 282.871094 122.902344 282.714844 123.128906 282.515625 123.328125 C 282.316406 123.523438 282.085938 123.675781 281.828125 123.78125 C 281.566406 123.890625 281.296875 123.941406 281.015625 123.941406 C 280.734375 123.9375 280.464844 123.882812 280.207031 123.773438 C 279.945312 123.667969 279.71875 123.511719 279.519531 123.3125 C 279.324219 123.113281 279.171875 122.882812 279.066406 122.625 L 278.90625 122.230469 C 278.800781 121.972656 278.746094 121.699219 278.75 121.417969 C 278.75 121.136719 278.804688 120.867188 278.914062 120.609375 C 279.023438 120.351562 279.175781 120.121094 279.375 119.925781 C 279.574219 119.726562 279.804688 119.574219 280.066406 119.46875 C 280.324219 119.363281 280.59375 119.3125 280.875 119.3125 C 281.15625 119.3125 281.425781 119.367188 281.6875 119.476562 C 281.945312 119.585938 282.171875 119.742188 282.371094 119.941406 C 282.570312 120.140625 282.71875 120.371094 282.828125 120.628906 Z M 287.128906 133.433594 L 287.238281 133.847656 C 287.3125 134.121094 287.328125 134.394531 287.289062 134.671875 C 287.25 134.953125 287.160156 135.210938 287.019531 135.453125 C 286.878906 135.699219 286.695312 135.902344 286.472656 136.074219 C 286.25 136.242188 286 136.363281 285.730469 136.433594 C 285.457031 136.507812 285.183594 136.523438 284.902344 136.484375 C 284.625 136.445312 284.363281 136.355469 284.121094 136.214844 C 283.878906 136.074219 283.675781 135.890625 283.503906 135.667969 C 283.335938 135.441406 283.214844 135.195312 283.140625 134.925781 L 283.035156 134.507812 C 282.960938 134.238281 282.945312 133.960938 282.984375 133.683594 C 283.023438 133.40625 283.113281 133.144531 283.253906 132.902344 C 283.394531 132.660156 283.578125 132.453125 283.800781 132.285156 C 284.023438 132.113281 284.273438 131.992188 284.542969 131.921875 C 284.816406 131.851562 285.089844 131.832031 285.371094 131.871094 C 285.648438 131.910156 285.90625 132 286.152344 132.140625 C 286.394531 132.285156 286.597656 132.464844 286.769531 132.691406 C 286.9375 132.914062 287.058594 133.160156 287.128906 133.433594 Z M 289.722656 146.691406 L 289.746094 146.855469 L 289.777344 147.117188 C 289.8125 147.394531 289.792969 147.667969 289.71875 147.941406 C 289.644531 148.210938 289.519531 148.457031 289.347656 148.679688 C 289.175781 148.902344 288.96875 149.082031 288.722656 149.21875 C 288.480469 149.359375 288.21875 149.445312 287.941406 149.480469 C 287.660156 149.515625 287.386719 149.496094 287.117188 149.421875 C 286.84375 149.347656 286.597656 149.222656 286.375 149.050781 C 286.15625 148.878906 285.976562 148.671875 285.835938 148.425781 C 285.695312 148.183594 285.609375 147.921875 285.574219 147.644531 L 285.542969 147.390625 L 285.523438 147.226562 C 285.488281 146.945312 285.503906 146.671875 285.578125 146.402344 C 285.652344 146.128906 285.777344 145.882812 285.949219 145.660156 C 286.121094 145.441406 286.328125 145.257812 286.570312 145.121094 C 286.816406 144.980469 287.078125 144.890625 287.355469 144.855469 C 287.632812 144.820312 287.910156 144.839844 288.179688 144.914062 C 288.449219 144.988281 288.695312 145.109375 288.917969 145.28125 C 289.140625 145.453125 289.320312 145.664062 289.460938 145.90625 C 289.601562 146.148438 289.6875 146.410156 289.722656 146.691406 Z M 290.5625 159.824219 L 290.5625 160.246094 C 290.5625 160.527344 290.507812 160.796875 290.398438 161.054688 C 290.292969 161.3125 290.136719 161.542969 289.9375 161.742188 C 289.738281 161.9375 289.511719 162.09375 289.25 162.199219 C 288.992188 162.304688 288.722656 162.359375 288.441406 162.359375 C 288.160156 162.359375 287.890625 162.304688 287.628906 162.195312 C 287.371094 162.085938 287.140625 161.933594 286.945312 161.734375 C 286.746094 161.535156 286.59375 161.304688 286.484375 161.046875 C 286.378906 160.789062 286.324219 160.515625 286.328125 160.234375 L 286.328125 159.816406 C 286.328125 159.535156 286.382812 159.265625 286.492188 159.007812 C 286.597656 158.746094 286.753906 158.519531 286.949219 158.320312 C 287.148438 158.121094 287.378906 157.96875 287.640625 157.863281 C 287.898438 157.753906 288.167969 157.703125 288.449219 157.703125 C 288.730469 157.703125 289 157.757812 289.261719 157.867188 C 289.519531 157.972656 289.75 158.128906 289.945312 158.328125 C 290.144531 158.527344 290.296875 158.753906 290.402344 159.015625 C 290.511719 159.273438 290.5625 159.542969 290.5625 159.824219 Z M 290.5625 159.824219 " clip-rule="nonzero"></path></clipPath><linearGradient x1="6.527945" gradientTransform="matrix(0.423598, 0, 0, 0.423598, 81.530597, 53.921419)" y1="250" x2="493.399988" gradientUnits="userSpaceOnUse" y2="250" id="1d7acf0287"><stop stop-opacity="1" stop-color="rgb(79.998779%, 19.999695%, 0%)" offset="0"></stop><stop stop-opacity="1" stop-color="rgb(79.542542%, 19.847107%, 0.605774%)" offset="0.00390625"></stop><stop stop-opacity="1" stop-color="rgb(79.08783%, 19.696045%, 1.213074%)" offset="0.0078125"></stop><stop stop-opacity="1" stop-color="rgb(78.633118%, 19.543457%, 1.820374%)" offset="0.0117188"></stop><stop stop-opacity="1" stop-color="rgb(78.178406%, 19.392395%, 2.427673%)" offset="0.015625"></stop><stop stop-opacity="1" stop-color="rgb(77.723694%, 19.239807%, 3.033447%)" offset="0.0195312"></stop><stop stop-opacity="1" stop-color="rgb(77.268982%, 19.088745%, 3.640747%)" offset="0.0234375"></stop><stop stop-opacity="1" stop-color="rgb(76.812744%, 18.936157%, 4.246521%)" offset="0.0273437"></stop><stop stop-opacity="1" stop-color="rgb(76.358032%, 18.785095%, 4.853821%)" offset="0.03125"></stop><stop stop-opacity="1" stop-color="rgb(75.90332%, 18.634033%, 5.459595%)" offset="0.0351562"></stop><stop stop-opacity="1" stop-color="rgb(75.448608%, 18.482971%, 6.066895%)" offset="0.0390625"></stop><stop stop-opacity="1" stop-color="rgb(74.992371%, 18.330383%, 6.672668%)" offset="0.0429687"></stop><stop stop-opacity="1" stop-color="rgb(74.537659%, 18.179321%, 7.279968%)" offset="0.046875"></stop><stop stop-opacity="1" stop-color="rgb(74.082947%, 18.026733%, 7.887268%)" offset="0.0507812"></stop><stop stop-opacity="1" stop-color="rgb(73.628235%, 17.875671%, 8.494568%)" offset="0.0546875"></stop><stop stop-opacity="1" stop-color="rgb(73.173523%, 17.723083%, 9.100342%)" offset="0.0585937"></stop><stop stop-opacity="1" stop-color="rgb(72.718811%, 17.572021%, 9.707642%)" offset="0.0625"></stop><stop stop-opacity="1" stop-color="rgb(72.262573%, 17.419434%, 10.313416%)" offset="0.0664062"></stop><stop stop-opacity="1" stop-color="rgb(71.807861%, 17.268372%, 10.920715%)" offset="0.0703125"></stop><stop stop-opacity="1" stop-color="rgb(71.353149%, 17.11731%, 11.526489%)" offset="0.0742187"></stop><stop stop-opacity="1" stop-color="rgb(70.898438%, 16.966248%, 12.133789%)" offset="0.078125"></stop><stop stop-opacity="1" stop-color="rgb(70.4422%, 16.81366%, 12.739563%)" offset="0.0820312"></stop><stop stop-opacity="1" stop-color="rgb(69.987488%, 16.662598%, 13.346863%)" offset="0.0859375"></stop><stop stop-opacity="1" stop-color="rgb(69.532776%, 16.51001%, 13.954163%)" offset="0.0898437"></stop><stop stop-opacity="1" stop-color="rgb(69.078064%, 16.358948%, 14.561462%)" offset="0.09375"></stop><stop stop-opacity="1" stop-color="rgb(68.623352%, 16.20636%, 15.167236%)" offset="0.0976562"></stop><stop stop-opacity="1" stop-color="rgb(68.16864%, 16.055298%, 15.774536%)" offset="0.101562"></stop><stop stop-opacity="1" stop-color="rgb(67.712402%, 15.90271%, 16.38031%)" offset="0.105469"></stop><stop stop-opacity="1" stop-color="rgb(67.25769%, 15.751648%, 16.98761%)" offset="0.109375"></stop><stop stop-opacity="1" stop-color="rgb(66.802979%, 15.59906%, 17.593384%)" offset="0.113281"></stop><stop stop-opacity="1" stop-color="rgb(66.348267%, 15.447998%, 18.200684%)" offset="0.117187"></stop><stop stop-opacity="1" stop-color="rgb(65.892029%, 15.296936%, 18.807983%)" offset="0.121094"></stop><stop stop-opacity="1" stop-color="rgb(65.437317%, 15.145874%, 19.415283%)" offset="0.125"></stop><stop stop-opacity="1" stop-color="rgb(64.982605%, 14.993286%, 20.021057%)" offset="0.128906"></stop><stop stop-opacity="1" stop-color="rgb(64.527893%, 14.842224%, 20.628357%)" offset="0.132812"></stop><stop stop-opacity="1" stop-color="rgb(64.071655%, 14.689636%, 21.234131%)" offset="0.136719"></stop><stop stop-opacity="1" stop-color="rgb(63.616943%, 14.538574%, 21.841431%)" offset="0.140625"></stop><stop stop-opacity="1" stop-color="rgb(63.162231%, 14.385986%, 22.447205%)" offset="0.144531"></stop><stop stop-opacity="1" stop-color="rgb(62.70752%, 14.234924%, 23.054504%)" offset="0.148437"></stop><stop stop-opacity="1" stop-color="rgb(62.252808%, 14.082336%, 23.660278%)" offset="0.152344"></stop><stop stop-opacity="1" stop-color="rgb(61.798096%, 13.931274%, 24.267578%)" offset="0.15625"></stop><stop stop-opacity="1" stop-color="rgb(61.341858%, 13.780212%, 24.874878%)" offset="0.160156"></stop><stop stop-opacity="1" stop-color="rgb(60.887146%, 13.62915%, 25.482178%)" offset="0.164062"></stop><stop stop-opacity="1" stop-color="rgb(60.432434%, 13.476562%, 26.087952%)" offset="0.167969"></stop><stop stop-opacity="1" stop-color="rgb(59.977722%, 13.3255%, 26.695251%)" offset="0.171875"></stop><stop stop-opacity="1" stop-color="rgb(59.521484%, 13.172913%, 27.301025%)" offset="0.175781"></stop><stop stop-opacity="1" stop-color="rgb(59.066772%, 13.021851%, 27.908325%)" offset="0.179687"></stop><stop stop-opacity="1" stop-color="rgb(58.612061%, 12.869263%, 28.514099%)" offset="0.183594"></stop><stop stop-opacity="1" stop-color="rgb(58.157349%, 12.718201%, 29.121399%)" offset="0.1875"></stop><stop stop-opacity="1" stop-color="rgb(57.702637%, 12.565613%, 29.727173%)" offset="0.191406"></stop><stop stop-opacity="1" stop-color="rgb(57.247925%, 12.414551%, 30.334473%)" offset="0.195312"></stop><stop stop-opacity="1" stop-color="rgb(56.791687%, 12.263489%, 30.941772%)" offset="0.199219"></stop><stop stop-opacity="1" stop-color="rgb(56.336975%, 12.112427%, 31.549072%)" offset="0.203125"></stop><stop stop-opacity="1" stop-color="rgb(55.882263%, 11.959839%, 32.154846%)" offset="0.207031"></stop><stop stop-opacity="1" stop-color="rgb(55.427551%, 11.808777%, 32.762146%)" offset="0.210937"></stop><stop stop-opacity="1" stop-color="rgb(54.971313%, 11.656189%, 33.36792%)" offset="0.214844"></stop><stop stop-opacity="1" stop-color="rgb(54.516602%, 11.505127%, 33.97522%)" offset="0.21875"></stop><stop stop-opacity="1" stop-color="rgb(54.06189%, 11.352539%, 34.580994%)" offset="0.222656"></stop><stop stop-opacity="1" stop-color="rgb(53.607178%, 11.201477%, 35.188293%)" offset="0.226562"></stop><stop stop-opacity="1" stop-color="rgb(53.152466%, 11.048889%, 35.794067%)" offset="0.230469"></stop><stop stop-opacity="1" stop-color="rgb(52.697754%, 10.897827%, 36.401367%)" offset="0.234375"></stop><stop stop-opacity="1" stop-color="rgb(52.241516%, 10.746765%, 37.008667%)" offset="0.238281"></stop><stop stop-opacity="1" stop-color="rgb(51.786804%, 10.595703%, 37.615967%)" offset="0.242187"></stop><stop stop-opacity="1" stop-color="rgb(51.332092%, 10.443115%, 38.221741%)" offset="0.246094"></stop><stop stop-opacity="1" stop-color="rgb(50.87738%, 10.292053%, 38.829041%)" offset="0.25"></stop><stop stop-opacity="1" stop-color="rgb(50.421143%, 10.139465%, 39.434814%)" offset="0.253906"></stop><stop stop-opacity="1" stop-color="rgb(49.966431%, 9.988403%, 40.042114%)" offset="0.257812"></stop><stop stop-opacity="1" stop-color="rgb(49.511719%, 9.835815%, 40.647888%)" offset="0.261719"></stop><stop stop-opacity="1" stop-color="rgb(49.057007%, 9.684753%, 41.255188%)" offset="0.265625"></stop><stop stop-opacity="1" stop-color="rgb(48.602295%, 9.532166%, 41.862488%)" offset="0.269531"></stop><stop stop-opacity="1" stop-color="rgb(48.147583%, 9.381104%, 42.469788%)" offset="0.273437"></stop><stop stop-opacity="1" stop-color="rgb(47.691345%, 9.230042%, 43.075562%)" offset="0.277344"></stop><stop stop-opacity="1" stop-color="rgb(47.236633%, 9.078979%, 43.682861%)" offset="0.28125"></stop><stop stop-opacity="1" stop-color="rgb(46.781921%, 8.926392%, 44.288635%)" offset="0.285156"></stop><stop stop-opacity="1" stop-color="rgb(46.327209%, 8.77533%, 44.895935%)" offset="0.289062"></stop><stop stop-opacity="1" stop-color="rgb(45.870972%, 8.622742%, 45.501709%)" offset="0.292969"></stop><stop stop-opacity="1" stop-color="rgb(45.41626%, 8.47168%, 46.109009%)" offset="0.296875"></stop><stop stop-opacity="1" stop-color="rgb(44.961548%, 8.319092%, 46.714783%)" offset="0.300781"></stop><stop stop-opacity="1" stop-color="rgb(44.506836%, 8.16803%, 47.322083%)" offset="0.304688"></stop><stop stop-opacity="1" stop-color="rgb(44.050598%, 8.015442%, 47.929382%)" offset="0.308594"></stop><stop stop-opacity="1" stop-color="rgb(43.595886%, 7.86438%, 48.536682%)" offset="0.3125"></stop><stop stop-opacity="1" stop-color="rgb(43.141174%, 7.713318%, 49.142456%)" offset="0.316406"></stop><stop stop-opacity="1" stop-color="rgb(42.686462%, 7.562256%, 49.749756%)" offset="0.320312"></stop><stop stop-opacity="1" stop-color="rgb(42.23175%, 7.409668%, 50.35553%)" offset="0.324219"></stop><stop stop-opacity="1" stop-color="rgb(41.777039%, 7.258606%, 50.96283%)" offset="0.328125"></stop><stop stop-opacity="1" stop-color="rgb(41.320801%, 7.106018%, 51.568604%)" offset="0.332031"></stop><stop stop-opacity="1" stop-color="rgb(40.866089%, 6.954956%, 52.175903%)" offset="0.335938"></stop><stop stop-opacity="1" stop-color="rgb(40.411377%, 6.802368%, 52.781677%)" offset="0.339844"></stop><stop stop-opacity="1" stop-color="rgb(39.956665%, 6.651306%, 53.388977%)" offset="0.34375"></stop><stop stop-opacity="1" stop-color="rgb(39.500427%, 6.498718%, 53.996277%)" offset="0.347656"></stop><stop stop-opacity="1" stop-color="rgb(39.045715%, 6.347656%, 54.603577%)" offset="0.351562"></stop><stop stop-opacity="1" stop-color="rgb(38.591003%, 6.196594%, 55.209351%)" offset="0.355469"></stop><stop stop-opacity="1" stop-color="rgb(38.136292%, 6.045532%, 55.81665%)" offset="0.359375"></stop><stop stop-opacity="1" stop-color="rgb(37.68158%, 5.892944%, 56.422424%)" offset="0.363281"></stop><stop stop-opacity="1" stop-color="rgb(37.226868%, 5.741882%, 57.029724%)" offset="0.367187"></stop><stop stop-opacity="1" stop-color="rgb(36.77063%, 5.589294%, 57.635498%)" offset="0.371094"></stop><stop stop-opacity="1" stop-color="rgb(36.315918%, 5.438232%, 58.242798%)" offset="0.375"></stop><stop stop-opacity="1" stop-color="rgb(35.861206%, 5.285645%, 58.850098%)" offset="0.378906"></stop><stop stop-opacity="1" stop-color="rgb(35.406494%, 5.134583%, 59.457397%)" offset="0.382812"></stop><stop stop-opacity="1" stop-color="rgb(34.950256%, 4.981995%, 60.063171%)" offset="0.386719"></stop><stop stop-opacity="1" stop-color="rgb(34.495544%, 4.830933%, 60.670471%)" offset="0.390625"></stop><stop stop-opacity="1" stop-color="rgb(34.040833%, 4.679871%, 61.276245%)" offset="0.394531"></stop><stop stop-opacity="1" stop-color="rgb(33.586121%, 4.528809%, 61.883545%)" offset="0.398438"></stop><stop stop-opacity="1" stop-color="rgb(33.131409%, 4.376221%, 62.489319%)" offset="0.402344"></stop><stop stop-opacity="1" stop-color="rgb(32.676697%, 4.225159%, 63.096619%)" offset="0.40625"></stop><stop stop-opacity="1" stop-color="rgb(32.220459%, 4.072571%, 63.702393%)" offset="0.410156"></stop><stop stop-opacity="1" stop-color="rgb(31.765747%, 3.921509%, 64.309692%)" offset="0.414062"></stop><stop stop-opacity="1" stop-color="rgb(31.311035%, 3.768921%, 64.916992%)" offset="0.417969"></stop><stop stop-opacity="1" stop-color="rgb(30.856323%, 3.617859%, 65.524292%)" offset="0.421875"></stop><stop stop-opacity="1" stop-color="rgb(30.400085%, 3.465271%, 66.130066%)" offset="0.425781"></stop><stop stop-opacity="1" stop-color="rgb(29.945374%, 3.314209%, 66.737366%)" offset="0.429687"></stop><stop stop-opacity="1" stop-color="rgb(29.490662%, 3.163147%, 67.34314%)" offset="0.433594"></stop><stop stop-opacity="1" stop-color="rgb(29.03595%, 3.012085%, 67.950439%)" offset="0.4375"></stop><stop stop-opacity="1" stop-color="rgb(28.581238%, 2.859497%, 68.556213%)" offset="0.441406"></stop><stop stop-opacity="1" stop-color="rgb(28.126526%, 2.708435%, 69.163513%)" offset="0.445312"></stop><stop stop-opacity="1" stop-color="rgb(27.670288%, 2.555847%, 69.769287%)" offset="0.449219"></stop><stop stop-opacity="1" stop-color="rgb(27.215576%, 2.404785%, 70.376587%)" offset="0.453125"></stop><stop stop-opacity="1" stop-color="rgb(26.760864%, 2.252197%, 70.983887%)" offset="0.457031"></stop><stop stop-opacity="1" stop-color="rgb(26.306152%, 2.101135%, 71.591187%)" offset="0.460937"></stop><stop stop-opacity="1" stop-color="rgb(25.849915%, 1.948547%, 72.19696%)" offset="0.464844"></stop><stop stop-opacity="1" stop-color="rgb(25.395203%, 1.797485%, 72.80426%)" offset="0.46875"></stop><stop stop-opacity="1" stop-color="rgb(24.940491%, 1.646423%, 73.410034%)" offset="0.472656"></stop><stop stop-opacity="1" stop-color="rgb(24.485779%, 1.495361%, 74.017334%)" offset="0.476562"></stop><stop stop-opacity="1" stop-color="rgb(24.029541%, 1.342773%, 74.623108%)" offset="0.480469"></stop><stop stop-opacity="1" stop-color="rgb(23.574829%, 1.191711%, 75.230408%)" offset="0.484375"></stop><stop stop-opacity="1" stop-color="rgb(23.120117%, 1.039124%, 75.837708%)" offset="0.488281"></stop><stop stop-opacity="1" stop-color="rgb(22.665405%, 0.888062%, 76.445007%)" offset="0.492187"></stop><stop stop-opacity="1" stop-color="rgb(22.210693%, 0.735474%, 77.050781%)" offset="0.496094"></stop><stop stop-opacity="1" stop-color="rgb(21.755981%, 0.584412%, 77.658081%)" offset="0.5"></stop><stop stop-opacity="1" stop-color="rgb(21.299744%, 0.431824%, 78.263855%)" offset="0.503906"></stop><stop stop-opacity="1" stop-color="rgb(20.845032%, 0.280762%, 78.871155%)" offset="0.507812"></stop><stop stop-opacity="1" stop-color="rgb(20.419312%, 0.141907%, 79.40979%)" offset="0.511719"></stop><stop stop-opacity="1" stop-color="rgb(19.995117%, 0.00305176%, 79.948425%)" offset="0.515625"></stop><stop stop-opacity="1" stop-color="rgb(19.963074%, 0.0305176%, 79.585266%)" offset="0.519531"></stop><stop stop-opacity="1" stop-color="rgb(19.932556%, 0.0595093%, 79.222107%)" offset="0.523437"></stop><stop stop-opacity="1" stop-color="rgb(19.900513%, 0.0869751%, 78.858948%)" offset="0.527344"></stop><stop stop-opacity="1" stop-color="rgb(19.868469%, 0.115967%, 78.495789%)" offset="0.53125"></stop><stop stop-opacity="1" stop-color="rgb(19.836426%, 0.143433%, 78.132629%)" offset="0.535156"></stop><stop stop-opacity="1" stop-color="rgb(19.805908%, 0.172424%, 77.76947%)" offset="0.539062"></stop><stop stop-opacity="1" stop-color="rgb(19.773865%, 0.19989%, 77.406311%)" offset="0.542969"></stop><stop stop-opacity="1" stop-color="rgb(19.743347%, 0.228882%, 77.043152%)" offset="0.546875"></stop><stop stop-opacity="1" stop-color="rgb(19.711304%, 0.256348%, 76.679993%)" offset="0.550781"></stop><stop stop-opacity="1" stop-color="rgb(19.680786%, 0.285339%, 76.316833%)" offset="0.554688"></stop><stop stop-opacity="1" stop-color="rgb(19.648743%, 0.312805%, 75.953674%)" offset="0.558594"></stop><stop stop-opacity="1" stop-color="rgb(19.618225%, 0.341797%, 75.590515%)" offset="0.5625"></stop><stop stop-opacity="1" stop-color="rgb(19.586182%, 0.369263%, 75.227356%)" offset="0.566406"></stop><stop stop-opacity="1" stop-color="rgb(19.555664%, 0.398254%, 74.864197%)" offset="0.570312"></stop><stop stop-opacity="1" stop-color="rgb(19.523621%, 0.42572%, 74.501038%)" offset="0.574219"></stop><stop stop-opacity="1" stop-color="rgb(19.491577%, 0.454712%, 74.137878%)" offset="0.578125"></stop><stop stop-opacity="1" stop-color="rgb(19.459534%, 0.482178%, 73.774719%)" offset="0.582031"></stop><stop stop-opacity="1" stop-color="rgb(19.429016%, 0.511169%, 73.41156%)" offset="0.585938"></stop><stop stop-opacity="1" stop-color="rgb(19.396973%, 0.538635%, 73.048401%)" offset="0.589844"></stop><stop stop-opacity="1" stop-color="rgb(19.366455%, 0.567627%, 72.685242%)" offset="0.59375"></stop><stop stop-opacity="1" stop-color="rgb(19.334412%, 0.595093%, 72.322083%)" offset="0.597656"></stop><stop stop-opacity="1" stop-color="rgb(19.303894%, 0.622559%, 71.958923%)" offset="0.601563"></stop><stop stop-opacity="1" stop-color="rgb(19.271851%, 0.650024%, 71.595764%)" offset="0.605469"></stop><stop stop-opacity="1" stop-color="rgb(19.241333%, 0.679016%, 71.232605%)" offset="0.609375"></stop><stop stop-opacity="1" stop-color="rgb(19.20929%, 0.706482%, 70.86792%)" offset="0.613281"></stop><stop stop-opacity="1" stop-color="rgb(19.178772%, 0.735474%, 70.504761%)" offset="0.617187"></stop><stop stop-opacity="1" stop-color="rgb(19.146729%, 0.762939%, 70.141602%)" offset="0.621094"></stop><stop stop-opacity="1" stop-color="rgb(19.116211%, 0.791931%, 69.778442%)" offset="0.625"></stop><stop stop-opacity="1" stop-color="rgb(19.084167%, 0.819397%, 69.415283%)" offset="0.628906"></stop><stop stop-opacity="1" stop-color="rgb(19.052124%, 0.848389%, 69.052124%)" offset="0.632812"></stop><stop stop-opacity="1" stop-color="rgb(19.020081%, 0.875854%, 68.688965%)" offset="0.636719"></stop><stop stop-opacity="1" stop-color="rgb(18.989563%, 0.904846%, 68.325806%)" offset="0.640625"></stop><stop stop-opacity="1" stop-color="rgb(18.95752%, 0.932312%, 67.962646%)" offset="0.644531"></stop><stop stop-opacity="1" stop-color="rgb(18.927002%, 0.961304%, 67.599487%)" offset="0.648438"></stop><stop stop-opacity="1" stop-color="rgb(18.894958%, 0.98877%, 67.236328%)" offset="0.652344"></stop><stop stop-opacity="1" stop-color="rgb(18.864441%, 1.017761%, 66.873169%)" offset="0.65625"></stop><stop stop-opacity="1" stop-color="rgb(18.832397%, 1.045227%, 66.51001%)" offset="0.660156"></stop><stop stop-opacity="1" stop-color="rgb(18.80188%, 1.074219%, 66.146851%)" offset="0.664062"></stop><stop stop-opacity="1" stop-color="rgb(18.769836%, 1.101685%, 65.783691%)" offset="0.667969"></stop><stop stop-opacity="1" stop-color="rgb(18.739319%, 1.130676%, 65.420532%)" offset="0.671875"></stop><stop stop-opacity="1" stop-color="rgb(18.707275%, 1.158142%, 65.057373%)" offset="0.675781"></stop><stop stop-opacity="1" stop-color="rgb(18.675232%, 1.187134%, 64.694214%)" offset="0.679688"></stop><stop stop-opacity="1" stop-color="rgb(18.643188%, 1.2146%, 64.331055%)" offset="0.683594"></stop><stop stop-opacity="1" stop-color="rgb(18.612671%, 1.243591%, 63.967896%)" offset="0.6875"></stop><stop stop-opacity="1" stop-color="rgb(18.580627%, 1.271057%, 63.604736%)" offset="0.691406"></stop><stop stop-opacity="1" stop-color="rgb(18.55011%, 1.300049%, 63.241577%)" offset="0.695313"></stop><stop stop-opacity="1" stop-color="rgb(18.518066%, 1.327515%, 62.878418%)" offset="0.699219"></stop><stop stop-opacity="1" stop-color="rgb(18.487549%, 1.356506%, 62.515259%)" offset="0.703125"></stop><stop stop-opacity="1" stop-color="rgb(18.455505%, 1.383972%, 62.1521%)" offset="0.707031"></stop><stop stop-opacity="1" stop-color="rgb(18.424988%, 1.412964%, 61.78894%)" offset="0.710937"></stop><stop stop-opacity="1" stop-color="rgb(18.392944%, 1.44043%, 61.425781%)" offset="0.714844"></stop><stop stop-opacity="1" stop-color="rgb(18.362427%, 1.469421%, 61.062622%)" offset="0.71875"></stop><stop stop-opacity="1" stop-color="rgb(18.330383%, 1.496887%, 60.699463%)" offset="0.722656"></stop><stop stop-opacity="1" stop-color="rgb(18.29834%, 1.525879%, 60.336304%)" offset="0.726562"></stop><stop stop-opacity="1" stop-color="rgb(18.266296%, 1.553345%, 59.973145%)" offset="0.730469"></stop><stop stop-opacity="1" stop-color="rgb(18.235779%, 1.580811%, 59.609985%)" offset="0.734375"></stop><stop stop-opacity="1" stop-color="rgb(18.203735%, 1.608276%, 59.246826%)" offset="0.738281"></stop><stop stop-opacity="1" stop-color="rgb(18.173218%, 1.637268%, 58.883667%)" offset="0.742188"></stop><stop stop-opacity="1" stop-color="rgb(18.141174%, 1.664734%, 58.520508%)" offset="0.746094"></stop><stop stop-opacity="1" stop-color="rgb(18.110657%, 1.693726%, 58.157349%)" offset="0.75"></stop><stop stop-opacity="1" stop-color="rgb(18.078613%, 1.721191%, 57.794189%)" offset="0.753906"></stop><stop stop-opacity="1" stop-color="rgb(18.048096%, 1.750183%, 57.43103%)" offset="0.757812"></stop><stop stop-opacity="1" stop-color="rgb(18.016052%, 1.777649%, 57.067871%)" offset="0.761719"></stop><stop stop-opacity="1" stop-color="rgb(17.985535%, 1.806641%, 56.704712%)" offset="0.765625"></stop><stop stop-opacity="1" stop-color="rgb(17.953491%, 1.834106%, 56.341553%)" offset="0.769531"></stop><stop stop-opacity="1" stop-color="rgb(17.921448%, 1.863098%, 55.978394%)" offset="0.773438"></stop><stop stop-opacity="1" stop-color="rgb(17.889404%, 1.890564%, 55.615234%)" offset="0.777344"></stop><stop stop-opacity="1" stop-color="rgb(17.858887%, 1.919556%, 55.252075%)" offset="0.78125"></stop><stop stop-opacity="1" stop-color="rgb(17.826843%, 1.947021%, 54.888916%)" offset="0.785156"></stop><stop stop-opacity="1" stop-color="rgb(17.796326%, 1.976013%, 54.525757%)" offset="0.789062"></stop><stop stop-opacity="1" stop-color="rgb(17.764282%, 2.003479%, 54.162598%)" offset="0.792969"></stop><stop stop-opacity="1" stop-color="rgb(17.733765%, 2.032471%, 53.799438%)" offset="0.796875"></stop><stop stop-opacity="1" stop-color="rgb(17.701721%, 2.059937%, 53.436279%)" offset="0.800781"></stop><stop stop-opacity="1" stop-color="rgb(17.671204%, 2.088928%, 53.07312%)" offset="0.804687"></stop><stop stop-opacity="1" stop-color="rgb(17.63916%, 2.116394%, 52.709961%)" offset="0.808594"></stop><stop stop-opacity="1" stop-color="rgb(17.608643%, 2.145386%, 52.346802%)" offset="0.8125"></stop><stop stop-opacity="1" stop-color="rgb(17.576599%, 2.172852%, 51.983643%)" offset="0.816406"></stop><stop stop-opacity="1" stop-color="rgb(17.544556%, 2.201843%, 51.620483%)" offset="0.820312"></stop><stop stop-opacity="1" stop-color="rgb(17.512512%, 2.229309%, 51.257324%)" offset="0.824219"></stop><stop stop-opacity="1" stop-color="rgb(17.481995%, 2.258301%, 50.894165%)" offset="0.828125"></stop><stop stop-opacity="1" stop-color="rgb(17.449951%, 2.285767%, 50.531006%)" offset="0.832031"></stop><stop stop-opacity="1" stop-color="rgb(17.419434%, 2.314758%, 50.167847%)" offset="0.835938"></stop><stop stop-opacity="1" stop-color="rgb(17.38739%, 2.342224%, 49.804688%)" offset="0.839844"></stop><stop stop-opacity="1" stop-color="rgb(17.356873%, 2.371216%, 49.441528%)" offset="0.84375"></stop><stop stop-opacity="1" stop-color="rgb(17.324829%, 2.398682%, 49.078369%)" offset="0.847656"></stop><stop stop-opacity="1" stop-color="rgb(17.294312%, 2.427673%, 48.71521%)" offset="0.851562"></stop><stop stop-opacity="1" stop-color="rgb(17.262268%, 2.455139%, 48.352051%)" offset="0.855469"></stop><stop stop-opacity="1" stop-color="rgb(17.23175%, 2.484131%, 47.988892%)" offset="0.859375"></stop><stop stop-opacity="1" stop-color="rgb(17.199707%, 2.511597%, 47.624207%)" offset="0.863281"></stop><stop stop-opacity="1" stop-color="rgb(17.167664%, 2.540588%, 47.261047%)" offset="0.867188"></stop><stop stop-opacity="1" stop-color="rgb(17.13562%, 2.568054%, 46.897888%)" offset="0.871094"></stop><stop stop-opacity="1" stop-color="rgb(17.105103%, 2.59552%, 46.534729%)" offset="0.875"></stop><stop stop-opacity="1" stop-color="rgb(17.073059%, 2.622986%, 46.17157%)" offset="0.878906"></stop><stop stop-opacity="1" stop-color="rgb(17.042542%, 2.651978%, 45.808411%)" offset="0.882812"></stop><stop stop-opacity="1" stop-color="rgb(17.010498%, 2.679443%, 45.445251%)" offset="0.886719"></stop><stop stop-opacity="1" stop-color="rgb(16.97998%, 2.708435%, 45.082092%)" offset="0.890625"></stop><stop stop-opacity="1" stop-color="rgb(16.947937%, 2.735901%, 44.718933%)" offset="0.894531"></stop><stop stop-opacity="1" stop-color="rgb(16.917419%, 2.764893%, 44.355774%)" offset="0.898438"></stop><stop stop-opacity="1" stop-color="rgb(16.885376%, 2.792358%, 43.992615%)" offset="0.902344"></stop><stop stop-opacity="1" stop-color="rgb(16.854858%, 2.82135%, 43.629456%)" offset="0.90625"></stop><stop stop-opacity="1" stop-color="rgb(16.822815%, 2.848816%, 43.266296%)" offset="0.910156"></stop><stop stop-opacity="1" stop-color="rgb(16.790771%, 2.877808%, 42.903137%)" offset="0.914062"></stop><stop stop-opacity="1" stop-color="rgb(16.758728%, 2.905273%, 42.539978%)" offset="0.917969"></stop><stop stop-opacity="1" stop-color="rgb(16.72821%, 2.934265%, 42.176819%)" offset="0.921875"></stop><stop stop-opacity="1" stop-color="rgb(16.696167%, 2.961731%, 41.81366%)" offset="0.925781"></stop><stop stop-opacity="1" stop-color="rgb(16.665649%, 2.990723%, 41.4505%)" offset="0.929688"></stop><stop stop-opacity="1" stop-color="rgb(16.633606%, 3.018188%, 41.087341%)" offset="0.933594"></stop><stop stop-opacity="1" stop-color="rgb(16.603088%, 3.04718%, 40.724182%)" offset="0.9375"></stop><stop stop-opacity="1" stop-color="rgb(16.571045%, 3.074646%, 40.361023%)" offset="0.941406"></stop><stop stop-opacity="1" stop-color="rgb(16.540527%, 3.103638%, 39.997864%)" offset="0.945313"></stop><stop stop-opacity="1" stop-color="rgb(16.508484%, 3.131104%, 39.634705%)" offset="0.949219"></stop><stop stop-opacity="1" stop-color="rgb(16.477966%, 3.160095%, 39.271545%)" offset="0.953125"></stop><stop stop-opacity="1" stop-color="rgb(16.445923%, 3.187561%, 38.908386%)" offset="0.957031"></stop><stop stop-opacity="1" stop-color="rgb(16.413879%, 3.216553%, 38.545227%)" offset="0.960937"></stop><stop stop-opacity="1" stop-color="rgb(16.381836%, 3.244019%, 38.182068%)" offset="0.964844"></stop><stop stop-opacity="1" stop-color="rgb(16.351318%, 3.27301%, 37.818909%)" offset="0.96875"></stop><stop stop-opacity="1" stop-color="rgb(16.319275%, 3.300476%, 37.45575%)" offset="0.972656"></stop><stop stop-opacity="1" stop-color="rgb(16.288757%, 3.329468%, 37.09259%)" offset="0.976562"></stop><stop stop-opacity="1" stop-color="rgb(16.256714%, 3.356934%, 36.729431%)" offset="0.980469"></stop><stop stop-opacity="1" stop-color="rgb(16.226196%, 3.385925%, 36.366272%)" offset="0.984375"></stop><stop stop-opacity="1" stop-color="rgb(16.194153%, 3.413391%, 36.003113%)" offset="0.988281"></stop><stop stop-opacity="1" stop-color="rgb(16.163635%, 3.442383%, 35.639954%)" offset="0.992188"></stop><stop stop-opacity="1" stop-color="rgb(16.131592%, 3.469849%, 35.276794%)" offset="0.996094"></stop><stop stop-opacity="1" stop-color="rgb(16.101074%, 3.49884%, 34.913635%)" offset="1"></stop></linearGradient><clipPath id="868eabd8d7"><path d="M 54.976562 150.183594 L 64.726562 150.183594 L 64.726562 159.933594 L 54.976562 159.933594 Z M 54.976562 150.183594 " clip-rule="nonzero"></path></clipPath><clipPath id="96a4923bb0"><path d="M 256.613281 56.675781 L 266.363281 56.675781 L 266.363281 66.425781 L 256.613281 66.425781 Z M 256.613281 56.675781 " clip-rule="nonzero"></path></clipPath><clipPath id="a0c589307c"><path d="M 290.714844 199.742188 L 300.464844 199.742188 L 300.464844 209.492188 L 290.714844 209.492188 Z M 290.714844 199.742188 " clip-rule="nonzero"></path></clipPath><clipPath id="2c285472d5"><path d="M 145.265625 37.5 L 157.265625 37.5 L 157.265625 49.5 L 145.265625 49.5 Z M 145.265625 37.5 " clip-rule="nonzero"></path></clipPath><clipPath id="0fbf8aaeec"><path d="M 100.363281 242.703125 L 112.363281 242.703125 L 112.363281 254.703125 L 100.363281 254.703125 Z M 100.363281 242.703125 " clip-rule="nonzero"></path></clipPath><clipPath id="28c770283a"><path d="M 309.003906 130.035156 L 321.003906 130.035156 L 321.003906 142.035156 L 309.003906 142.035156 Z M 309.003906 130.035156 " clip-rule="nonzero"></path></clipPath><clipPath id="b9b780803c"><path d="M 132.953125 92.738281 L 226 92.738281 L 226 124 L 132.953125 124 Z M 132.953125 92.738281 " clip-rule="nonzero"></path></clipPath><clipPath id="c4794801e0"><path d="M 132.953125 127 L 179 127 L 179 155 L 132.953125 155 Z M 132.953125 127 " clip-rule="nonzero"></path></clipPath><clipPath id="9932afb827"><path d="M 132.953125 158 L 179 158 L 179 186 L 132.953125 186 Z M 132.953125 158 " clip-rule="nonzero"></path></clipPath><clipPath id="f5924f28db"><path d="M 132.953125 189 L 203 189 L 203 217 L 132.953125 217 Z M 132.953125 189 " clip-rule="nonzero"></path></clipPath><clipPath id="5ec5545ce0"><path d="M 167 123 L 256.703125 123 L 256.703125 213 L 167 213 Z M 167 123 " clip-rule="nonzero"></path></clipPath><clipPath id="203af8c25c"><path d="M 163.550781 225.75 L 173.300781 225.75 L 173.300781 235.5 L 163.550781 235.5 Z M 163.550781 225.75 " clip-rule="nonzero"></path></clipPath><clipPath id="ce71f4250e"><path d="M 232.164062 109.832031 L 244.164062 109.832031 L 244.164062 121.832031 L 232.164062 121.832031 Z M 232.164062 109.832031 " clip-rule="nonzero"></path></clipPath><clipPath id="86e8dd3d1b"><path d="M 220.511719 223.804688 L 232.511719 223.804688 L 232.511719 235.804688 L 220.511719 235.804688 Z M 220.511719 223.804688 " clip-rule="nonzero"></path></clipPath></defs><g clip-path="url(#2149096937)"><g clip-path="url(#5770c4f81a)"><path fill="url(#1d7acf0287)" d="M 84.296875 56.6875 L 84.296875 262.925781 L 290.535156 262.925781 L 290.535156 56.6875 Z M 84.296875 56.6875 " fill-rule="nonzero"></path></g></g><g clip-path="url(#868eabd8d7)"><path fill="#290959" d="M 59.851562 150.183594 C 57.15625 150.183594 54.976562 152.363281 54.976562 155.058594 C 54.976562 157.75 57.15625 159.933594 59.851562 159.933594 C 62.542969 159.933594 64.726562 157.75 64.726562 155.058594 C 64.726562 152.363281 62.542969 150.183594 59.851562 150.183594 Z M 59.851562 158.957031 C 57.695312 158.957031 55.949219 157.210938 55.949219 155.058594 C 55.949219 152.902344 57.695312 151.15625 59.851562 151.15625 C 62.003906 151.15625 63.75 152.902344 63.75 155.058594 C 63.75 157.210938 62.003906 158.957031 59.851562 158.957031 Z M 59.851562 158.957031 " fill-opacity="1" fill-rule="nonzero"></path></g><g clip-path="url(#96a4923bb0)"><path fill="#cc3300" d="M 261.488281 56.675781 C 258.796875 56.675781 256.613281 58.855469 256.613281 61.550781 C 256.613281 64.242188 258.796875 66.425781 261.488281 66.425781 C 264.183594 66.425781 266.363281 64.242188 266.363281 61.550781 C 266.363281 58.855469 264.183594 56.675781 261.488281 56.675781 Z M 261.488281 65.449219 C 259.335938 65.449219 257.589844 63.703125 257.589844 61.550781 C 257.589844 59.394531 259.335938 57.648438 261.488281 57.648438 C 263.644531 57.648438 265.390625 59.394531 265.390625 61.550781 C 265.390625 63.703125 263.644531 65.449219 261.488281 65.449219 Z M 261.488281 65.449219 " fill-opacity="1" fill-rule="nonzero"></path></g><g clip-path="url(#a0c589307c)"><path fill="#3300cc" d="M 295.589844 199.742188 C 292.898438 199.742188 290.714844 201.925781 290.714844 204.617188 C 290.714844 207.3125 292.898438 209.492188 295.589844 209.492188 C 298.285156 209.492188 300.464844 207.3125 300.464844 204.617188 C 300.464844 201.925781 298.285156 199.742188 295.589844 199.742188 Z M 295.589844 208.519531 C 293.4375 208.519531 291.691406 206.773438 291.691406 204.617188 C 291.691406 202.464844 293.4375 200.71875 295.589844 200.71875 C 297.746094 200.71875 299.492188 202.464844 299.492188 204.617188 C 299.492188 206.773438 297.746094 208.519531 295.589844 208.519531 Z M 295.589844 208.519531 " fill-opacity="1" fill-rule="nonzero"></path></g><g clip-path="url(#2c285472d5)"><path fill="#290959" d="M 151.265625 37.5 C 150.683594 42.441406 150.207031 42.914062 145.265625 43.5 C 145.277344 43.5 145.289062 43.503906 145.296875 43.503906 C 150.210938 44.085938 150.683594 44.570312 151.265625 49.5 C 151.851562 44.558594 152.324219 44.085938 157.265625 43.5 C 152.324219 42.914062 151.851562 42.441406 151.265625 37.5 Z M 151.265625 37.5 " fill-opacity="1" fill-rule="nonzero"></path></g><g clip-path="url(#0fbf8aaeec)"><path fill="#990000" d="M 106.363281 242.703125 C 105.78125 247.644531 105.304688 248.117188 100.363281 248.703125 C 100.375 248.703125 100.382812 248.707031 100.394531 248.707031 C 105.308594 249.289062 105.78125 249.773438 106.363281 254.703125 C 106.949219 249.761719 107.421875 249.289062 112.363281 248.703125 C 107.421875 248.117188 106.949219 247.644531 106.363281 242.703125 Z M 106.363281 242.703125 " fill-opacity="1" fill-rule="nonzero"></path></g><g clip-path="url(#28c770283a)"><path fill="#cc3300" d="M 315.003906 130.035156 C 314.417969 134.976562 313.945312 135.453125 309.003906 136.035156 C 309.011719 136.039062 309.023438 136.039062 309.03125 136.039062 L 309.035156 136.039062 C 313.945312 136.625 314.417969 137.105469 315.003906 142.035156 C 315.585938 137.09375 316.0625 136.621094 321.003906 136.035156 C 316.0625 135.453125 315.585938 134.976562 315.003906 130.035156 Z M 315.003906 130.035156 " fill-opacity="1" fill-rule="nonzero"></path></g><g clip-path="url(#b9b780803c)"><path fill="#290959" d="M 179.359375 123.808594 C 204.988281 123.808594 225.765625 116.890625 225.765625 108.363281 C 225.765625 99.832031 204.988281 92.917969 179.359375 92.917969 C 153.726562 92.917969 132.953125 99.832031 132.953125 108.363281 C 132.953125 116.890625 153.726562 123.808594 179.359375 123.808594 Z M 179.359375 96.777344 C 206.882812 96.777344 221.898438 104.429688 221.898438 108.363281 C 221.898438 112.292969 206.882812 119.945312 179.359375 119.945312 C 151.832031 119.945312 136.820312 112.292969 136.820312 108.363281 C 136.820312 104.429688 151.832031 96.777344 179.359375 96.777344 Z M 179.359375 96.777344 " fill-opacity="1" fill-rule="nonzero"></path></g><path fill="#290959" d="M 225.765625 132.496094 L 225.765625 129.339844 C 225.765625 128.417969 225.066406 127.667969 224.203125 127.667969 C 224.074219 127.667969 223.949219 127.691406 223.832031 127.722656 C 223.902344 128.125 223.945312 128.539062 223.945312 128.960938 L 223.945312 131.824219 C 224.558594 132.023438 225.164062 132.253906 225.765625 132.496094 Z M 225.765625 132.496094 " fill-opacity="1" fill-rule="nonzero"></path><g clip-path="url(#c4794801e0)"><path fill="#290959" d="M 133.90625 144.804688 C 134.855469 145.378906 150.269531 154.417969 176.722656 154.699219 C 177.21875 153.488281 177.769531 152.300781 178.390625 151.140625 L 177.972656 150.722656 C 155.179688 150.652344 140.558594 143.933594 136.851562 142.015625 L 136.828125 129.589844 C 136.828125 128.53125 135.960938 127.667969 134.890625 127.667969 C 134.890625 127.667969 134.886719 127.667969 134.886719 127.667969 C 133.816406 127.671875 132.949219 128.535156 132.953125 129.597656 L 132.976562 143.164062 C 132.976562 143.835938 133.332031 144.457031 133.90625 144.804688 Z M 133.90625 144.804688 " fill-opacity="1" fill-rule="nonzero"></path></g><g clip-path="url(#9932afb827)"><path fill="#290959" d="M 133.921875 175.691406 C 134.898438 176.269531 150.917969 185.507812 178.390625 185.589844 C 177.757812 184.285156 177.203125 182.953125 176.726562 181.589844 C 154.695312 181.152344 140.578125 174.765625 136.917969 172.902344 L 136.894531 160.480469 C 136.894531 159.421875 136.011719 158.558594 134.921875 158.558594 C 134.921875 158.558594 134.921875 158.558594 134.917969 158.558594 C 133.828125 158.5625 132.949219 159.425781 132.953125 160.488281 L 132.976562 174.046875 C 132.976562 174.71875 133.335938 175.34375 133.921875 175.691406 Z M 133.921875 175.691406 " fill-opacity="1" fill-rule="nonzero"></path></g><g clip-path="url(#f5924f28db)"><path fill="#290959" d="M 133.902344 206.578125 C 134.863281 207.160156 150.671875 216.480469 177.777344 216.480469 C 185.210938 216.480469 193.5 215.773438 202.5625 214 C 201.730469 212.941406 201.167969 211.695312 200.957031 210.34375 C 165.058594 217.019531 141.660156 206.300781 136.835938 203.792969 L 136.8125 191.375 C 136.8125 190.3125 135.949219 189.449219 134.882812 189.449219 C 134.882812 189.449219 134.878906 189.449219 134.878906 189.449219 C 133.8125 189.453125 132.949219 190.316406 132.953125 191.378906 L 132.972656 204.9375 C 132.976562 205.605469 133.328125 206.230469 133.902344 206.578125 Z M 133.902344 206.578125 " fill-opacity="1" fill-rule="nonzero"></path></g><path fill="#290959" d="M 225.765625 206.1875 L 225.765625 205.078125 C 225.019531 205.359375 224.269531 205.625 223.507812 205.855469 L 223.507812 208.339844 C 223.832031 208.226562 224.152344 208.121094 224.476562 208.007812 C 225.25 207.734375 225.765625 207.003906 225.765625 206.1875 Z M 225.765625 206.1875 " fill-opacity="1" fill-rule="nonzero"></path><g clip-path="url(#5ec5545ce0)"><path fill="#290959" d="M 252.308594 160.8125 L 246.011719 160.8125 C 245.125 156.761719 243.527344 152.980469 241.355469 149.59375 L 245.8125 145.148438 C 247.527344 143.433594 247.351562 140.488281 245.421875 138.558594 L 241.929688 135.070312 C 240.886719 134.03125 239.550781 133.503906 238.273438 133.503906 C 237.175781 133.503906 236.121094 133.890625 235.328125 134.683594 L 230.875 139.132812 C 227.484375 136.960938 223.699219 135.367188 219.640625 134.480469 L 219.640625 128.195312 C 219.640625 125.773438 217.425781 123.808594 214.699219 123.808594 L 209.761719 123.808594 C 207.03125 123.808594 204.816406 125.773438 204.816406 128.195312 L 204.816406 134.480469 C 200.757812 135.367188 196.972656 136.960938 193.582031 139.132812 L 189.128906 134.683594 C 188.339844 133.890625 187.285156 133.503906 186.1875 133.503906 C 184.90625 133.503906 183.570312 134.03125 182.53125 135.070312 L 179.039062 138.558594 C 177.105469 140.488281 176.929688 143.433594 178.648438 145.148438 L 183.105469 149.59375 C 180.929688 152.980469 179.332031 156.761719 178.449219 160.8125 L 172.152344 160.8125 C 169.726562 160.8125 167.757812 163.023438 167.757812 165.746094 L 167.757812 170.675781 C 167.757812 173.402344 169.726562 175.613281 172.152344 175.613281 L 178.449219 175.613281 C 179.332031 179.664062 180.929688 183.445312 183.105469 186.828125 L 178.648438 191.277344 C 176.933594 192.988281 177.105469 195.9375 179.039062 197.867188 L 182.53125 201.355469 C 183.570312 202.390625 184.90625 202.921875 186.1875 202.921875 C 187.285156 202.921875 188.339844 202.535156 189.128906 201.742188 L 193.582031 197.292969 C 196.972656 199.460938 200.757812 201.058594 204.816406 201.945312 L 204.816406 208.230469 C 204.816406 210.652344 207.03125 212.617188 209.761719 212.617188 L 214.699219 212.617188 C 217.425781 212.617188 219.640625 210.652344 219.640625 208.230469 L 219.640625 201.945312 C 223.699219 201.058594 227.484375 199.460938 230.875 197.292969 L 235.328125 201.742188 C 236.121094 202.535156 237.175781 202.921875 238.273438 202.921875 C 239.550781 202.921875 240.886719 202.390625 241.929688 201.355469 L 245.421875 197.867188 C 247.351562 195.9375 247.527344 192.988281 245.8125 191.277344 L 241.355469 186.828125 C 243.527344 183.445312 245.125 179.664062 246.011719 175.613281 L 252.308594 175.613281 C 254.734375 175.613281 256.703125 173.402344 256.703125 170.675781 L 256.703125 165.746094 C 256.703125 163.023438 254.734375 160.8125 252.308594 160.8125 Z M 252.835938 170.679688 C 252.835938 171.371094 252.4375 171.753906 252.308594 171.753906 L 242.898438 171.753906 L 242.234375 174.792969 C 241.460938 178.328125 240.070312 181.679688 238.101562 184.746094 L 236.417969 187.363281 L 243.078125 194.011719 C 243.171875 194.101562 243.179688 194.648438 242.6875 195.140625 L 239.199219 198.625 C 239.015625 198.808594 238.339844 199.296875 238.066406 199.015625 L 231.410156 192.367188 L 228.789062 194.046875 C 225.714844 196.011719 222.359375 197.402344 218.816406 198.171875 L 215.773438 198.835938 L 215.773438 208.230469 C 215.773438 208.363281 215.390625 208.757812 214.699219 208.757812 L 209.761719 208.757812 C 209.066406 208.757812 208.683594 208.363281 208.683594 208.230469 L 208.683594 198.835938 L 205.640625 198.171875 C 202.097656 197.402344 198.742188 196.011719 195.671875 194.046875 L 193.050781 192.367188 C 193.050781 192.367188 186.425781 198.984375 186.394531 199.015625 C 186.121094 199.285156 185.4375 198.800781 185.261719 198.628906 L 181.769531 195.140625 C 181.582031 194.953125 181.101562 194.289062 181.382812 194.011719 L 188.039062 187.363281 L 186.359375 184.746094 C 184.386719 181.679688 182.996094 178.328125 182.226562 174.792969 L 181.558594 171.753906 L 172.148438 171.753906 C 172.019531 171.753906 171.625 171.371094 171.625 170.679688 L 171.625 165.75 C 171.625 165.054688 172.019531 164.675781 172.148438 164.675781 L 181.558594 164.675781 L 182.226562 161.636719 C 183 158.097656 184.386719 154.746094 186.359375 151.679688 L 188.039062 149.0625 C 188.039062 149.0625 181.402344 142.4375 181.378906 142.414062 C 181.109375 142.144531 181.59375 141.464844 181.769531 141.289062 L 185.261719 137.800781 C 185.449219 137.613281 186.113281 137.132812 186.394531 137.410156 L 193.050781 144.058594 L 195.671875 142.382812 C 198.742188 140.414062 202.097656 139.023438 205.640625 138.253906 L 208.683594 137.589844 L 208.683594 128.195312 C 208.683594 128.0625 209.066406 127.667969 209.761719 127.667969 L 214.699219 127.667969 C 215.394531 127.667969 215.773438 128.0625 215.773438 128.195312 L 215.773438 137.589844 L 218.816406 138.253906 C 222.359375 139.027344 225.714844 140.414062 228.789062 142.382812 L 231.410156 144.058594 C 231.410156 144.058594 238.027344 137.449219 238.066406 137.410156 C 238.335938 137.140625 239.023438 137.625 239.195312 137.800781 L 242.6875 141.285156 C 243.179688 141.777344 243.171875 142.324219 243.078125 142.417969 L 236.417969 149.0625 L 238.101562 151.679688 C 240.070312 154.75 241.460938 158.097656 242.234375 161.636719 L 242.898438 164.675781 L 252.308594 164.675781 C 252.4375 164.675781 252.835938 165.054688 252.835938 165.75 Z M 252.835938 170.679688 " fill-opacity="1" fill-rule="nonzero"></path></g><path fill="#290959" d="M 212.230469 146.976562 C 200.480469 146.976562 190.960938 156.484375 190.960938 168.210938 C 190.960938 179.941406 200.480469 189.449219 212.230469 189.449219 C 223.976562 189.449219 233.5 179.941406 233.5 168.210938 C 233.5 156.484375 223.976562 146.976562 212.230469 146.976562 Z M 212.230469 185.589844 C 202.632812 185.589844 194.828125 177.792969 194.828125 168.210938 C 194.828125 158.632812 202.632812 150.835938 212.230469 150.835938 C 221.824219 150.835938 229.632812 158.632812 229.632812 168.210938 C 229.632812 177.792969 221.824219 185.589844 212.230469 185.589844 Z M 212.230469 185.589844 " fill-opacity="1" fill-rule="nonzero"></path><g clip-path="url(#203af8c25c)"><path fill="#cc3300" d="M 168.425781 225.75 C 165.734375 225.75 163.550781 227.929688 163.550781 230.625 C 163.550781 233.316406 165.734375 235.5 168.425781 235.5 C 171.121094 235.5 173.300781 233.316406 173.300781 230.625 C 173.300781 227.929688 171.121094 225.75 168.425781 225.75 Z M 168.425781 234.523438 C 166.273438 234.523438 164.527344 232.777344 164.527344 230.625 C 164.527344 228.46875 166.273438 226.722656 168.425781 226.722656 C 170.582031 226.722656 172.328125 228.46875 172.328125 230.625 C 172.328125 232.777344 170.582031 234.523438 168.425781 234.523438 Z M 168.425781 234.523438 " fill-opacity="1" fill-rule="nonzero"></path></g><g clip-path="url(#ce71f4250e)"><path fill="#290959" d="M 238.164062 109.832031 C 237.578125 114.773438 237.105469 115.25 232.164062 115.832031 C 232.171875 115.835938 232.183594 115.835938 232.195312 115.835938 C 237.105469 116.417969 237.578125 116.902344 238.164062 121.832031 C 238.746094 116.890625 239.222656 116.417969 244.164062 115.832031 C 239.222656 115.25 238.746094 114.773438 238.164062 109.832031 Z M 238.164062 109.832031 " fill-opacity="1" fill-rule="nonzero"></path></g><g clip-path="url(#86e8dd3d1b)"><path fill="#cc3300" d="M 226.511719 223.804688 C 225.925781 228.746094 225.453125 229.222656 220.511719 229.804688 C 220.523438 229.808594 220.53125 229.808594 220.542969 229.808594 C 225.457031 230.394531 225.929688 230.875 226.511719 235.804688 C 227.097656 230.867188 227.570312 230.390625 232.511719 229.804688 C 227.570312 229.222656 227.097656 228.746094 226.511719 223.804688 Z M 226.511719 223.804688 " fill-opacity="1" fill-rule="nonzero"></path></g></svg>